G04 EAGLE Gerber RS-274X export*
G75*
%MOMM*%
%FSLAX34Y34*%
%LPD*%
%INTop Copper*%
%IPPOS*%
%AMOC8*
5,1,8,0,0,1.08239X$1,22.5*%
G01*
%ADD10R,1.200000X0.900000*%
%ADD11R,1.508000X1.508000*%
%ADD12C,1.508000*%
%ADD13R,2.400000X0.760000*%
%ADD14R,1.700000X0.900000*%
%ADD15R,3.200000X1.600000*%
%ADD16R,1.600000X3.200000*%
%ADD17R,6.300000X6.100000*%
%ADD18R,1.500000X2.800000*%
%ADD19C,0.508000*%
%ADD20C,0.756400*%
%ADD21C,0.203200*%


D10*
X50800Y81390D03*
X50800Y63390D03*
X177800Y47100D03*
X177800Y29100D03*
D11*
X76200Y215900D03*
D12*
X76200Y190900D03*
X76200Y483400D03*
X76200Y508400D03*
D11*
X76200Y533400D03*
D12*
X76200Y293700D03*
X76200Y318700D03*
X76200Y343700D03*
X76200Y368700D03*
D11*
X76200Y393700D03*
D13*
X482600Y558800D03*
X533400Y558800D03*
X482600Y546100D03*
X533400Y546100D03*
X482600Y533400D03*
X533400Y533400D03*
X482600Y520700D03*
X533400Y520700D03*
X482600Y508000D03*
X533400Y508000D03*
X482600Y101600D03*
X533400Y101600D03*
X482600Y88900D03*
X533400Y88900D03*
X482600Y76200D03*
X533400Y76200D03*
X482600Y63500D03*
X533400Y63500D03*
X482600Y50800D03*
X533400Y50800D03*
X482600Y254000D03*
X533400Y254000D03*
X482600Y241300D03*
X533400Y241300D03*
X482600Y228600D03*
X533400Y228600D03*
X482600Y215900D03*
X533400Y215900D03*
X482600Y203200D03*
X533400Y203200D03*
X482600Y406400D03*
X533400Y406400D03*
X482600Y393700D03*
X533400Y393700D03*
X482600Y381000D03*
X533400Y381000D03*
X482600Y368300D03*
X533400Y368300D03*
X482600Y355600D03*
X533400Y355600D03*
D12*
X261620Y36830D03*
X287020Y36830D03*
X312420Y36830D03*
D14*
X431800Y497100D03*
X431800Y468100D03*
X431800Y560600D03*
X431800Y531600D03*
D15*
X190500Y584200D03*
X190500Y558800D03*
X190500Y533400D03*
X190500Y508000D03*
X190500Y482600D03*
X190500Y457200D03*
X190500Y431800D03*
X190500Y406400D03*
X190500Y381000D03*
X190500Y355600D03*
X190500Y330200D03*
X190500Y304800D03*
X190500Y279400D03*
X190500Y254000D03*
X190500Y228600D03*
X190500Y203200D03*
X190500Y177800D03*
X190500Y152400D03*
X190500Y127000D03*
X190500Y101600D03*
X384300Y101600D03*
X384300Y127000D03*
X384300Y152400D03*
X384300Y177800D03*
X384300Y203200D03*
X384300Y228600D03*
X384300Y254000D03*
X384300Y279400D03*
X384300Y304800D03*
X384300Y330200D03*
X384300Y355600D03*
X384300Y381000D03*
X384300Y406400D03*
X384300Y431800D03*
X384300Y457200D03*
X384300Y482600D03*
X384300Y508000D03*
X384300Y533400D03*
X384300Y558800D03*
X384300Y584200D03*
D16*
X262000Y95900D03*
X287400Y95900D03*
X312800Y95900D03*
D17*
X114300Y113900D03*
D18*
X91500Y50900D03*
X137100Y50900D03*
D19*
X95250Y533400D02*
X76200Y533400D01*
X95250Y412750D02*
X76200Y393700D01*
X95250Y412750D02*
X95250Y533400D01*
X190500Y533400D01*
X114300Y190900D02*
X76200Y190900D01*
X114300Y190900D02*
X139700Y190900D01*
X139700Y266700D01*
X139700Y279400D01*
X190500Y279400D01*
X76200Y393700D02*
X50800Y393700D01*
D20*
X152400Y406400D03*
D19*
X190500Y406400D01*
X508000Y50800D02*
X533400Y50800D01*
X508000Y50800D02*
X508000Y203200D01*
X533400Y203200D01*
X508000Y203200D02*
X508000Y355600D01*
X533400Y355600D01*
X533400Y508000D02*
X508000Y508000D01*
X508000Y469900D02*
X508000Y355600D01*
D20*
X355600Y152400D03*
D19*
X508000Y469900D02*
X508000Y508000D01*
X384300Y152400D02*
X355600Y152400D01*
X342900Y254000D02*
X342900Y279400D01*
D20*
X342900Y254000D03*
D21*
X342900Y279400D02*
X384300Y279400D01*
D19*
X342900Y279400D02*
X342900Y406400D01*
D21*
X384300Y406400D01*
D19*
X342900Y406400D02*
X342900Y533400D01*
X384300Y533400D01*
D21*
X114500Y114100D02*
X114300Y113900D01*
D19*
X114300Y114300D02*
X114300Y190900D01*
X114300Y114300D02*
X114500Y114100D01*
X152400Y152400D02*
X190500Y152400D01*
X152400Y152400D02*
X114500Y114500D01*
X114500Y114100D01*
X287400Y95900D02*
X287400Y37210D01*
X287020Y36830D01*
X164700Y63500D02*
X114300Y113900D01*
X164700Y63500D02*
X177800Y63500D01*
X177800Y47100D01*
X177800Y63500D02*
X208280Y63500D01*
X228600Y43180D02*
X228600Y19050D01*
X288290Y19050D01*
X288290Y36320D01*
X287400Y37210D01*
X228600Y43180D02*
X208280Y63500D01*
X50800Y266700D02*
X50800Y393700D01*
X50800Y266700D02*
X139700Y266700D01*
X50800Y114300D02*
X50800Y81390D01*
X50800Y114300D02*
X113900Y114300D01*
X114300Y113900D01*
X431800Y468100D02*
X506200Y468100D01*
X508000Y469900D01*
X488950Y19050D02*
X288290Y19050D01*
X488950Y19050D02*
X508000Y38100D01*
X508000Y50800D01*
D21*
X177800Y29100D02*
X175950Y27250D01*
D19*
X533400Y406400D02*
X571500Y406400D01*
X571500Y546100D02*
X558800Y558800D01*
X533400Y558800D01*
X571500Y406400D02*
X571500Y355600D01*
X571500Y406400D02*
X571500Y546100D01*
X533400Y177800D02*
X533400Y101600D01*
D20*
X533400Y177800D03*
D19*
X137100Y50900D02*
X124400Y50900D01*
X114300Y40800D01*
X114300Y25400D01*
D20*
X114300Y25400D03*
X342900Y558800D03*
D19*
X384300Y558800D01*
X152300Y50900D02*
X175950Y27250D01*
X384300Y558800D02*
X386100Y560600D01*
X431800Y560600D01*
X431800Y584200D01*
X533400Y584200D01*
X533400Y558800D01*
X533400Y266700D02*
X533400Y254000D01*
D20*
X533400Y266700D03*
X571500Y355600D03*
D19*
X152300Y50900D02*
X137100Y50900D01*
D21*
X190500Y203200D02*
X292100Y203200D01*
X292100Y393700D01*
D20*
X292100Y393700D03*
X464820Y494030D03*
D21*
X478790Y508000D02*
X482600Y508000D01*
X478790Y508000D02*
X464820Y494030D01*
X266700Y254000D02*
X190500Y254000D01*
X266700Y254000D02*
X266700Y406400D01*
D20*
X266700Y406400D03*
X457200Y515620D03*
D21*
X462280Y520700D01*
X482600Y520700D01*
X279400Y228600D02*
X190500Y228600D01*
X279400Y228600D02*
X279400Y419100D01*
D20*
X279400Y419100D03*
X457200Y533400D03*
D21*
X482600Y533400D01*
X482600Y50800D02*
X332740Y50800D01*
X332740Y137160D01*
X238760Y137160D01*
X238760Y76200D01*
X190500Y76200D01*
X190500Y101600D01*
X341630Y63500D02*
X482600Y63500D01*
X341630Y63500D02*
X341630Y177800D01*
X190500Y177800D01*
X453390Y76200D02*
X482600Y76200D01*
X453390Y76200D02*
X453390Y127000D01*
D20*
X453390Y127000D03*
X215900Y127000D03*
D21*
X190500Y127000D01*
X355600Y177800D02*
X384300Y177800D01*
D20*
X355600Y177800D03*
X457200Y203200D03*
D21*
X482600Y203200D01*
X431800Y101600D02*
X384300Y101600D01*
X431800Y101600D02*
X431800Y215900D01*
X482600Y215900D01*
X419100Y127000D02*
X384300Y127000D01*
X419100Y127000D02*
X419100Y228600D01*
X482600Y228600D01*
X482600Y304800D02*
X482600Y355600D01*
X482600Y304800D02*
X431800Y254000D01*
X384300Y254000D01*
D20*
X444500Y350520D03*
X306070Y350520D03*
D21*
X306070Y203200D01*
X384300Y203200D01*
X444500Y350520D02*
X449580Y355600D01*
X462280Y355600D01*
X462280Y368300D01*
X482600Y368300D01*
D20*
X450850Y367030D03*
X330200Y368300D03*
D21*
X330200Y228600D01*
X384300Y228600D01*
X450850Y367030D02*
X450850Y370840D01*
X461010Y381000D01*
X482600Y381000D01*
X444500Y381000D02*
X444500Y431800D01*
X384300Y431800D01*
D20*
X558800Y368300D03*
X444500Y381000D03*
D21*
X533400Y368300D02*
X558800Y368300D01*
D20*
X557530Y393700D03*
X419100Y381000D03*
D21*
X384300Y381000D01*
X533400Y393700D02*
X557530Y393700D01*
X419100Y355600D02*
X384300Y355600D01*
X419100Y355600D02*
X431800Y342900D01*
X431800Y304800D01*
D20*
X431800Y304800D03*
X560070Y292100D03*
D21*
X567690Y284480D01*
X567690Y215900D01*
X533400Y215900D01*
X533400Y241300D02*
X558800Y241300D01*
X558800Y279400D01*
D20*
X558800Y279400D03*
X419100Y292100D03*
D21*
X406400Y304800D01*
X384300Y304800D01*
X533400Y63500D02*
X589280Y63500D01*
X589280Y317500D02*
X565150Y317500D01*
X589280Y317500D02*
X589280Y63500D01*
D20*
X565150Y317500D03*
X228600Y317500D03*
D21*
X228600Y304800D01*
X190500Y304800D01*
X533400Y88900D02*
X579120Y88900D01*
X579120Y285750D02*
X533400Y331470D01*
X527050Y331470D01*
X579120Y285750D02*
X579120Y88900D01*
D20*
X527050Y331470D03*
X228600Y330200D03*
D21*
X190500Y330200D01*
X190500Y355600D02*
X254000Y355600D01*
X254000Y381000D01*
D20*
X254000Y381000D03*
X558800Y495300D03*
D21*
X558800Y520700D01*
X533400Y520700D01*
D20*
X558800Y533400D03*
X241300Y419100D03*
D21*
X241300Y381000D02*
X190500Y381000D01*
X241300Y381000D02*
X241300Y419100D01*
X558800Y533400D02*
X558800Y534670D01*
X547370Y546100D01*
X533400Y546100D01*
D19*
X76200Y215900D02*
X25400Y215900D01*
X25400Y63500D01*
X25510Y63390D01*
X50800Y63390D01*
X50800Y50800D01*
X91400Y50800D01*
X91500Y50900D01*
D21*
X76200Y368700D02*
X107950Y368700D01*
X107950Y508000D01*
X190500Y508000D01*
X190500Y482600D02*
X119380Y482600D01*
X119380Y361950D01*
X101130Y343700D01*
X76200Y343700D01*
X76270Y318770D02*
X76200Y318700D01*
X76270Y318770D02*
X106680Y318770D01*
X130810Y342900D01*
X130810Y457200D01*
X190500Y457200D01*
X189230Y433070D02*
X190500Y431800D01*
X189230Y433070D02*
X141478Y433070D01*
X141478Y331477D01*
X104133Y294132D01*
X76632Y294132D01*
X76200Y293700D01*
X52070Y483870D02*
X52070Y571500D01*
X139700Y584200D02*
X190500Y584200D01*
X139700Y584200D02*
X127000Y571500D01*
X52070Y571500D01*
X52540Y483400D02*
X76200Y483400D01*
X52540Y483400D02*
X52070Y483870D01*
X59690Y558800D02*
X190500Y558800D01*
X59690Y558800D02*
X59690Y524510D01*
X75800Y508400D02*
X76200Y508400D01*
X75800Y508400D02*
X59690Y524510D01*
X431800Y531600D02*
X431800Y497100D01*
X261620Y95520D02*
X261620Y36830D01*
X261620Y95520D02*
X262000Y95900D01*
X312420Y95520D02*
X312420Y36830D01*
X312420Y95520D02*
X312800Y95900D01*
M02*
