G04 EAGLE Gerber RS-274X export*
G75*
%MOMM*%
%FSLAX34Y34*%
%LPD*%
%IN*%
%IPPOS*%
%AMOC8*
5,1,8,0,0,1.08239X$1,22.5*%
G01*
%ADD10C,0.000000*%


D10*
X0Y0D02*
X610110Y0D01*
X608840Y609500D01*
X0Y609500D01*
X0Y609600D02*
X0Y0D01*
X9525Y25400D02*
X9530Y25790D01*
X9544Y26179D01*
X9568Y26568D01*
X9601Y26956D01*
X9644Y27343D01*
X9697Y27729D01*
X9759Y28114D01*
X9830Y28497D01*
X9911Y28878D01*
X10001Y29257D01*
X10100Y29634D01*
X10209Y30008D01*
X10326Y30380D01*
X10453Y30748D01*
X10589Y31113D01*
X10733Y31475D01*
X10887Y31833D01*
X11049Y32187D01*
X11220Y32538D01*
X11399Y32883D01*
X11587Y33225D01*
X11784Y33561D01*
X11988Y33893D01*
X12200Y34220D01*
X12421Y34541D01*
X12649Y34857D01*
X12885Y35167D01*
X13128Y35471D01*
X13379Y35769D01*
X13637Y36061D01*
X13903Y36346D01*
X14175Y36625D01*
X14454Y36897D01*
X14739Y37163D01*
X15031Y37421D01*
X15329Y37672D01*
X15633Y37915D01*
X15943Y38151D01*
X16259Y38379D01*
X16580Y38600D01*
X16907Y38812D01*
X17239Y39016D01*
X17575Y39213D01*
X17917Y39401D01*
X18262Y39580D01*
X18613Y39751D01*
X18967Y39913D01*
X19325Y40067D01*
X19687Y40211D01*
X20052Y40347D01*
X20420Y40474D01*
X20792Y40591D01*
X21166Y40700D01*
X21543Y40799D01*
X21922Y40889D01*
X22303Y40970D01*
X22686Y41041D01*
X23071Y41103D01*
X23457Y41156D01*
X23844Y41199D01*
X24232Y41232D01*
X24621Y41256D01*
X25010Y41270D01*
X25400Y41275D01*
X25790Y41270D01*
X26179Y41256D01*
X26568Y41232D01*
X26956Y41199D01*
X27343Y41156D01*
X27729Y41103D01*
X28114Y41041D01*
X28497Y40970D01*
X28878Y40889D01*
X29257Y40799D01*
X29634Y40700D01*
X30008Y40591D01*
X30380Y40474D01*
X30748Y40347D01*
X31113Y40211D01*
X31475Y40067D01*
X31833Y39913D01*
X32187Y39751D01*
X32538Y39580D01*
X32883Y39401D01*
X33225Y39213D01*
X33561Y39016D01*
X33893Y38812D01*
X34220Y38600D01*
X34541Y38379D01*
X34857Y38151D01*
X35167Y37915D01*
X35471Y37672D01*
X35769Y37421D01*
X36061Y37163D01*
X36346Y36897D01*
X36625Y36625D01*
X36897Y36346D01*
X37163Y36061D01*
X37421Y35769D01*
X37672Y35471D01*
X37915Y35167D01*
X38151Y34857D01*
X38379Y34541D01*
X38600Y34220D01*
X38812Y33893D01*
X39016Y33561D01*
X39213Y33225D01*
X39401Y32883D01*
X39580Y32538D01*
X39751Y32187D01*
X39913Y31833D01*
X40067Y31475D01*
X40211Y31113D01*
X40347Y30748D01*
X40474Y30380D01*
X40591Y30008D01*
X40700Y29634D01*
X40799Y29257D01*
X40889Y28878D01*
X40970Y28497D01*
X41041Y28114D01*
X41103Y27729D01*
X41156Y27343D01*
X41199Y26956D01*
X41232Y26568D01*
X41256Y26179D01*
X41270Y25790D01*
X41275Y25400D01*
X41270Y25010D01*
X41256Y24621D01*
X41232Y24232D01*
X41199Y23844D01*
X41156Y23457D01*
X41103Y23071D01*
X41041Y22686D01*
X40970Y22303D01*
X40889Y21922D01*
X40799Y21543D01*
X40700Y21166D01*
X40591Y20792D01*
X40474Y20420D01*
X40347Y20052D01*
X40211Y19687D01*
X40067Y19325D01*
X39913Y18967D01*
X39751Y18613D01*
X39580Y18262D01*
X39401Y17917D01*
X39213Y17575D01*
X39016Y17239D01*
X38812Y16907D01*
X38600Y16580D01*
X38379Y16259D01*
X38151Y15943D01*
X37915Y15633D01*
X37672Y15329D01*
X37421Y15031D01*
X37163Y14739D01*
X36897Y14454D01*
X36625Y14175D01*
X36346Y13903D01*
X36061Y13637D01*
X35769Y13379D01*
X35471Y13128D01*
X35167Y12885D01*
X34857Y12649D01*
X34541Y12421D01*
X34220Y12200D01*
X33893Y11988D01*
X33561Y11784D01*
X33225Y11587D01*
X32883Y11399D01*
X32538Y11220D01*
X32187Y11049D01*
X31833Y10887D01*
X31475Y10733D01*
X31113Y10589D01*
X30748Y10453D01*
X30380Y10326D01*
X30008Y10209D01*
X29634Y10100D01*
X29257Y10001D01*
X28878Y9911D01*
X28497Y9830D01*
X28114Y9759D01*
X27729Y9697D01*
X27343Y9644D01*
X26956Y9601D01*
X26568Y9568D01*
X26179Y9544D01*
X25790Y9530D01*
X25400Y9525D01*
X25010Y9530D01*
X24621Y9544D01*
X24232Y9568D01*
X23844Y9601D01*
X23457Y9644D01*
X23071Y9697D01*
X22686Y9759D01*
X22303Y9830D01*
X21922Y9911D01*
X21543Y10001D01*
X21166Y10100D01*
X20792Y10209D01*
X20420Y10326D01*
X20052Y10453D01*
X19687Y10589D01*
X19325Y10733D01*
X18967Y10887D01*
X18613Y11049D01*
X18262Y11220D01*
X17917Y11399D01*
X17575Y11587D01*
X17239Y11784D01*
X16907Y11988D01*
X16580Y12200D01*
X16259Y12421D01*
X15943Y12649D01*
X15633Y12885D01*
X15329Y13128D01*
X15031Y13379D01*
X14739Y13637D01*
X14454Y13903D01*
X14175Y14175D01*
X13903Y14454D01*
X13637Y14739D01*
X13379Y15031D01*
X13128Y15329D01*
X12885Y15633D01*
X12649Y15943D01*
X12421Y16259D01*
X12200Y16580D01*
X11988Y16907D01*
X11784Y17239D01*
X11587Y17575D01*
X11399Y17917D01*
X11220Y18262D01*
X11049Y18613D01*
X10887Y18967D01*
X10733Y19325D01*
X10589Y19687D01*
X10453Y20052D01*
X10326Y20420D01*
X10209Y20792D01*
X10100Y21166D01*
X10001Y21543D01*
X9911Y21922D01*
X9830Y22303D01*
X9759Y22686D01*
X9697Y23071D01*
X9644Y23457D01*
X9601Y23844D01*
X9568Y24232D01*
X9544Y24621D01*
X9530Y25010D01*
X9525Y25400D01*
X568325Y25400D02*
X568330Y25790D01*
X568344Y26179D01*
X568368Y26568D01*
X568401Y26956D01*
X568444Y27343D01*
X568497Y27729D01*
X568559Y28114D01*
X568630Y28497D01*
X568711Y28878D01*
X568801Y29257D01*
X568900Y29634D01*
X569009Y30008D01*
X569126Y30380D01*
X569253Y30748D01*
X569389Y31113D01*
X569533Y31475D01*
X569687Y31833D01*
X569849Y32187D01*
X570020Y32538D01*
X570199Y32883D01*
X570387Y33225D01*
X570584Y33561D01*
X570788Y33893D01*
X571000Y34220D01*
X571221Y34541D01*
X571449Y34857D01*
X571685Y35167D01*
X571928Y35471D01*
X572179Y35769D01*
X572437Y36061D01*
X572703Y36346D01*
X572975Y36625D01*
X573254Y36897D01*
X573539Y37163D01*
X573831Y37421D01*
X574129Y37672D01*
X574433Y37915D01*
X574743Y38151D01*
X575059Y38379D01*
X575380Y38600D01*
X575707Y38812D01*
X576039Y39016D01*
X576375Y39213D01*
X576717Y39401D01*
X577062Y39580D01*
X577413Y39751D01*
X577767Y39913D01*
X578125Y40067D01*
X578487Y40211D01*
X578852Y40347D01*
X579220Y40474D01*
X579592Y40591D01*
X579966Y40700D01*
X580343Y40799D01*
X580722Y40889D01*
X581103Y40970D01*
X581486Y41041D01*
X581871Y41103D01*
X582257Y41156D01*
X582644Y41199D01*
X583032Y41232D01*
X583421Y41256D01*
X583810Y41270D01*
X584200Y41275D01*
X584590Y41270D01*
X584979Y41256D01*
X585368Y41232D01*
X585756Y41199D01*
X586143Y41156D01*
X586529Y41103D01*
X586914Y41041D01*
X587297Y40970D01*
X587678Y40889D01*
X588057Y40799D01*
X588434Y40700D01*
X588808Y40591D01*
X589180Y40474D01*
X589548Y40347D01*
X589913Y40211D01*
X590275Y40067D01*
X590633Y39913D01*
X590987Y39751D01*
X591338Y39580D01*
X591683Y39401D01*
X592025Y39213D01*
X592361Y39016D01*
X592693Y38812D01*
X593020Y38600D01*
X593341Y38379D01*
X593657Y38151D01*
X593967Y37915D01*
X594271Y37672D01*
X594569Y37421D01*
X594861Y37163D01*
X595146Y36897D01*
X595425Y36625D01*
X595697Y36346D01*
X595963Y36061D01*
X596221Y35769D01*
X596472Y35471D01*
X596715Y35167D01*
X596951Y34857D01*
X597179Y34541D01*
X597400Y34220D01*
X597612Y33893D01*
X597816Y33561D01*
X598013Y33225D01*
X598201Y32883D01*
X598380Y32538D01*
X598551Y32187D01*
X598713Y31833D01*
X598867Y31475D01*
X599011Y31113D01*
X599147Y30748D01*
X599274Y30380D01*
X599391Y30008D01*
X599500Y29634D01*
X599599Y29257D01*
X599689Y28878D01*
X599770Y28497D01*
X599841Y28114D01*
X599903Y27729D01*
X599956Y27343D01*
X599999Y26956D01*
X600032Y26568D01*
X600056Y26179D01*
X600070Y25790D01*
X600075Y25400D01*
X600070Y25010D01*
X600056Y24621D01*
X600032Y24232D01*
X599999Y23844D01*
X599956Y23457D01*
X599903Y23071D01*
X599841Y22686D01*
X599770Y22303D01*
X599689Y21922D01*
X599599Y21543D01*
X599500Y21166D01*
X599391Y20792D01*
X599274Y20420D01*
X599147Y20052D01*
X599011Y19687D01*
X598867Y19325D01*
X598713Y18967D01*
X598551Y18613D01*
X598380Y18262D01*
X598201Y17917D01*
X598013Y17575D01*
X597816Y17239D01*
X597612Y16907D01*
X597400Y16580D01*
X597179Y16259D01*
X596951Y15943D01*
X596715Y15633D01*
X596472Y15329D01*
X596221Y15031D01*
X595963Y14739D01*
X595697Y14454D01*
X595425Y14175D01*
X595146Y13903D01*
X594861Y13637D01*
X594569Y13379D01*
X594271Y13128D01*
X593967Y12885D01*
X593657Y12649D01*
X593341Y12421D01*
X593020Y12200D01*
X592693Y11988D01*
X592361Y11784D01*
X592025Y11587D01*
X591683Y11399D01*
X591338Y11220D01*
X590987Y11049D01*
X590633Y10887D01*
X590275Y10733D01*
X589913Y10589D01*
X589548Y10453D01*
X589180Y10326D01*
X588808Y10209D01*
X588434Y10100D01*
X588057Y10001D01*
X587678Y9911D01*
X587297Y9830D01*
X586914Y9759D01*
X586529Y9697D01*
X586143Y9644D01*
X585756Y9601D01*
X585368Y9568D01*
X584979Y9544D01*
X584590Y9530D01*
X584200Y9525D01*
X583810Y9530D01*
X583421Y9544D01*
X583032Y9568D01*
X582644Y9601D01*
X582257Y9644D01*
X581871Y9697D01*
X581486Y9759D01*
X581103Y9830D01*
X580722Y9911D01*
X580343Y10001D01*
X579966Y10100D01*
X579592Y10209D01*
X579220Y10326D01*
X578852Y10453D01*
X578487Y10589D01*
X578125Y10733D01*
X577767Y10887D01*
X577413Y11049D01*
X577062Y11220D01*
X576717Y11399D01*
X576375Y11587D01*
X576039Y11784D01*
X575707Y11988D01*
X575380Y12200D01*
X575059Y12421D01*
X574743Y12649D01*
X574433Y12885D01*
X574129Y13128D01*
X573831Y13379D01*
X573539Y13637D01*
X573254Y13903D01*
X572975Y14175D01*
X572703Y14454D01*
X572437Y14739D01*
X572179Y15031D01*
X571928Y15329D01*
X571685Y15633D01*
X571449Y15943D01*
X571221Y16259D01*
X571000Y16580D01*
X570788Y16907D01*
X570584Y17239D01*
X570387Y17575D01*
X570199Y17917D01*
X570020Y18262D01*
X569849Y18613D01*
X569687Y18967D01*
X569533Y19325D01*
X569389Y19687D01*
X569253Y20052D01*
X569126Y20420D01*
X569009Y20792D01*
X568900Y21166D01*
X568801Y21543D01*
X568711Y21922D01*
X568630Y22303D01*
X568559Y22686D01*
X568497Y23071D01*
X568444Y23457D01*
X568401Y23844D01*
X568368Y24232D01*
X568344Y24621D01*
X568330Y25010D01*
X568325Y25400D01*
X568325Y584200D02*
X568330Y584590D01*
X568344Y584979D01*
X568368Y585368D01*
X568401Y585756D01*
X568444Y586143D01*
X568497Y586529D01*
X568559Y586914D01*
X568630Y587297D01*
X568711Y587678D01*
X568801Y588057D01*
X568900Y588434D01*
X569009Y588808D01*
X569126Y589180D01*
X569253Y589548D01*
X569389Y589913D01*
X569533Y590275D01*
X569687Y590633D01*
X569849Y590987D01*
X570020Y591338D01*
X570199Y591683D01*
X570387Y592025D01*
X570584Y592361D01*
X570788Y592693D01*
X571000Y593020D01*
X571221Y593341D01*
X571449Y593657D01*
X571685Y593967D01*
X571928Y594271D01*
X572179Y594569D01*
X572437Y594861D01*
X572703Y595146D01*
X572975Y595425D01*
X573254Y595697D01*
X573539Y595963D01*
X573831Y596221D01*
X574129Y596472D01*
X574433Y596715D01*
X574743Y596951D01*
X575059Y597179D01*
X575380Y597400D01*
X575707Y597612D01*
X576039Y597816D01*
X576375Y598013D01*
X576717Y598201D01*
X577062Y598380D01*
X577413Y598551D01*
X577767Y598713D01*
X578125Y598867D01*
X578487Y599011D01*
X578852Y599147D01*
X579220Y599274D01*
X579592Y599391D01*
X579966Y599500D01*
X580343Y599599D01*
X580722Y599689D01*
X581103Y599770D01*
X581486Y599841D01*
X581871Y599903D01*
X582257Y599956D01*
X582644Y599999D01*
X583032Y600032D01*
X583421Y600056D01*
X583810Y600070D01*
X584200Y600075D01*
X584590Y600070D01*
X584979Y600056D01*
X585368Y600032D01*
X585756Y599999D01*
X586143Y599956D01*
X586529Y599903D01*
X586914Y599841D01*
X587297Y599770D01*
X587678Y599689D01*
X588057Y599599D01*
X588434Y599500D01*
X588808Y599391D01*
X589180Y599274D01*
X589548Y599147D01*
X589913Y599011D01*
X590275Y598867D01*
X590633Y598713D01*
X590987Y598551D01*
X591338Y598380D01*
X591683Y598201D01*
X592025Y598013D01*
X592361Y597816D01*
X592693Y597612D01*
X593020Y597400D01*
X593341Y597179D01*
X593657Y596951D01*
X593967Y596715D01*
X594271Y596472D01*
X594569Y596221D01*
X594861Y595963D01*
X595146Y595697D01*
X595425Y595425D01*
X595697Y595146D01*
X595963Y594861D01*
X596221Y594569D01*
X596472Y594271D01*
X596715Y593967D01*
X596951Y593657D01*
X597179Y593341D01*
X597400Y593020D01*
X597612Y592693D01*
X597816Y592361D01*
X598013Y592025D01*
X598201Y591683D01*
X598380Y591338D01*
X598551Y590987D01*
X598713Y590633D01*
X598867Y590275D01*
X599011Y589913D01*
X599147Y589548D01*
X599274Y589180D01*
X599391Y588808D01*
X599500Y588434D01*
X599599Y588057D01*
X599689Y587678D01*
X599770Y587297D01*
X599841Y586914D01*
X599903Y586529D01*
X599956Y586143D01*
X599999Y585756D01*
X600032Y585368D01*
X600056Y584979D01*
X600070Y584590D01*
X600075Y584200D01*
X600070Y583810D01*
X600056Y583421D01*
X600032Y583032D01*
X599999Y582644D01*
X599956Y582257D01*
X599903Y581871D01*
X599841Y581486D01*
X599770Y581103D01*
X599689Y580722D01*
X599599Y580343D01*
X599500Y579966D01*
X599391Y579592D01*
X599274Y579220D01*
X599147Y578852D01*
X599011Y578487D01*
X598867Y578125D01*
X598713Y577767D01*
X598551Y577413D01*
X598380Y577062D01*
X598201Y576717D01*
X598013Y576375D01*
X597816Y576039D01*
X597612Y575707D01*
X597400Y575380D01*
X597179Y575059D01*
X596951Y574743D01*
X596715Y574433D01*
X596472Y574129D01*
X596221Y573831D01*
X595963Y573539D01*
X595697Y573254D01*
X595425Y572975D01*
X595146Y572703D01*
X594861Y572437D01*
X594569Y572179D01*
X594271Y571928D01*
X593967Y571685D01*
X593657Y571449D01*
X593341Y571221D01*
X593020Y571000D01*
X592693Y570788D01*
X592361Y570584D01*
X592025Y570387D01*
X591683Y570199D01*
X591338Y570020D01*
X590987Y569849D01*
X590633Y569687D01*
X590275Y569533D01*
X589913Y569389D01*
X589548Y569253D01*
X589180Y569126D01*
X588808Y569009D01*
X588434Y568900D01*
X588057Y568801D01*
X587678Y568711D01*
X587297Y568630D01*
X586914Y568559D01*
X586529Y568497D01*
X586143Y568444D01*
X585756Y568401D01*
X585368Y568368D01*
X584979Y568344D01*
X584590Y568330D01*
X584200Y568325D01*
X583810Y568330D01*
X583421Y568344D01*
X583032Y568368D01*
X582644Y568401D01*
X582257Y568444D01*
X581871Y568497D01*
X581486Y568559D01*
X581103Y568630D01*
X580722Y568711D01*
X580343Y568801D01*
X579966Y568900D01*
X579592Y569009D01*
X579220Y569126D01*
X578852Y569253D01*
X578487Y569389D01*
X578125Y569533D01*
X577767Y569687D01*
X577413Y569849D01*
X577062Y570020D01*
X576717Y570199D01*
X576375Y570387D01*
X576039Y570584D01*
X575707Y570788D01*
X575380Y571000D01*
X575059Y571221D01*
X574743Y571449D01*
X574433Y571685D01*
X574129Y571928D01*
X573831Y572179D01*
X573539Y572437D01*
X573254Y572703D01*
X572975Y572975D01*
X572703Y573254D01*
X572437Y573539D01*
X572179Y573831D01*
X571928Y574129D01*
X571685Y574433D01*
X571449Y574743D01*
X571221Y575059D01*
X571000Y575380D01*
X570788Y575707D01*
X570584Y576039D01*
X570387Y576375D01*
X570199Y576717D01*
X570020Y577062D01*
X569849Y577413D01*
X569687Y577767D01*
X569533Y578125D01*
X569389Y578487D01*
X569253Y578852D01*
X569126Y579220D01*
X569009Y579592D01*
X568900Y579966D01*
X568801Y580343D01*
X568711Y580722D01*
X568630Y581103D01*
X568559Y581486D01*
X568497Y581871D01*
X568444Y582257D01*
X568401Y582644D01*
X568368Y583032D01*
X568344Y583421D01*
X568330Y583810D01*
X568325Y584200D01*
X9525Y584200D02*
X9530Y584590D01*
X9544Y584979D01*
X9568Y585368D01*
X9601Y585756D01*
X9644Y586143D01*
X9697Y586529D01*
X9759Y586914D01*
X9830Y587297D01*
X9911Y587678D01*
X10001Y588057D01*
X10100Y588434D01*
X10209Y588808D01*
X10326Y589180D01*
X10453Y589548D01*
X10589Y589913D01*
X10733Y590275D01*
X10887Y590633D01*
X11049Y590987D01*
X11220Y591338D01*
X11399Y591683D01*
X11587Y592025D01*
X11784Y592361D01*
X11988Y592693D01*
X12200Y593020D01*
X12421Y593341D01*
X12649Y593657D01*
X12885Y593967D01*
X13128Y594271D01*
X13379Y594569D01*
X13637Y594861D01*
X13903Y595146D01*
X14175Y595425D01*
X14454Y595697D01*
X14739Y595963D01*
X15031Y596221D01*
X15329Y596472D01*
X15633Y596715D01*
X15943Y596951D01*
X16259Y597179D01*
X16580Y597400D01*
X16907Y597612D01*
X17239Y597816D01*
X17575Y598013D01*
X17917Y598201D01*
X18262Y598380D01*
X18613Y598551D01*
X18967Y598713D01*
X19325Y598867D01*
X19687Y599011D01*
X20052Y599147D01*
X20420Y599274D01*
X20792Y599391D01*
X21166Y599500D01*
X21543Y599599D01*
X21922Y599689D01*
X22303Y599770D01*
X22686Y599841D01*
X23071Y599903D01*
X23457Y599956D01*
X23844Y599999D01*
X24232Y600032D01*
X24621Y600056D01*
X25010Y600070D01*
X25400Y600075D01*
X25790Y600070D01*
X26179Y600056D01*
X26568Y600032D01*
X26956Y599999D01*
X27343Y599956D01*
X27729Y599903D01*
X28114Y599841D01*
X28497Y599770D01*
X28878Y599689D01*
X29257Y599599D01*
X29634Y599500D01*
X30008Y599391D01*
X30380Y599274D01*
X30748Y599147D01*
X31113Y599011D01*
X31475Y598867D01*
X31833Y598713D01*
X32187Y598551D01*
X32538Y598380D01*
X32883Y598201D01*
X33225Y598013D01*
X33561Y597816D01*
X33893Y597612D01*
X34220Y597400D01*
X34541Y597179D01*
X34857Y596951D01*
X35167Y596715D01*
X35471Y596472D01*
X35769Y596221D01*
X36061Y595963D01*
X36346Y595697D01*
X36625Y595425D01*
X36897Y595146D01*
X37163Y594861D01*
X37421Y594569D01*
X37672Y594271D01*
X37915Y593967D01*
X38151Y593657D01*
X38379Y593341D01*
X38600Y593020D01*
X38812Y592693D01*
X39016Y592361D01*
X39213Y592025D01*
X39401Y591683D01*
X39580Y591338D01*
X39751Y590987D01*
X39913Y590633D01*
X40067Y590275D01*
X40211Y589913D01*
X40347Y589548D01*
X40474Y589180D01*
X40591Y588808D01*
X40700Y588434D01*
X40799Y588057D01*
X40889Y587678D01*
X40970Y587297D01*
X41041Y586914D01*
X41103Y586529D01*
X41156Y586143D01*
X41199Y585756D01*
X41232Y585368D01*
X41256Y584979D01*
X41270Y584590D01*
X41275Y584200D01*
X41270Y583810D01*
X41256Y583421D01*
X41232Y583032D01*
X41199Y582644D01*
X41156Y582257D01*
X41103Y581871D01*
X41041Y581486D01*
X40970Y581103D01*
X40889Y580722D01*
X40799Y580343D01*
X40700Y579966D01*
X40591Y579592D01*
X40474Y579220D01*
X40347Y578852D01*
X40211Y578487D01*
X40067Y578125D01*
X39913Y577767D01*
X39751Y577413D01*
X39580Y577062D01*
X39401Y576717D01*
X39213Y576375D01*
X39016Y576039D01*
X38812Y575707D01*
X38600Y575380D01*
X38379Y575059D01*
X38151Y574743D01*
X37915Y574433D01*
X37672Y574129D01*
X37421Y573831D01*
X37163Y573539D01*
X36897Y573254D01*
X36625Y572975D01*
X36346Y572703D01*
X36061Y572437D01*
X35769Y572179D01*
X35471Y571928D01*
X35167Y571685D01*
X34857Y571449D01*
X34541Y571221D01*
X34220Y571000D01*
X33893Y570788D01*
X33561Y570584D01*
X33225Y570387D01*
X32883Y570199D01*
X32538Y570020D01*
X32187Y569849D01*
X31833Y569687D01*
X31475Y569533D01*
X31113Y569389D01*
X30748Y569253D01*
X30380Y569126D01*
X30008Y569009D01*
X29634Y568900D01*
X29257Y568801D01*
X28878Y568711D01*
X28497Y568630D01*
X28114Y568559D01*
X27729Y568497D01*
X27343Y568444D01*
X26956Y568401D01*
X26568Y568368D01*
X26179Y568344D01*
X25790Y568330D01*
X25400Y568325D01*
X25010Y568330D01*
X24621Y568344D01*
X24232Y568368D01*
X23844Y568401D01*
X23457Y568444D01*
X23071Y568497D01*
X22686Y568559D01*
X22303Y568630D01*
X21922Y568711D01*
X21543Y568801D01*
X21166Y568900D01*
X20792Y569009D01*
X20420Y569126D01*
X20052Y569253D01*
X19687Y569389D01*
X19325Y569533D01*
X18967Y569687D01*
X18613Y569849D01*
X18262Y570020D01*
X17917Y570199D01*
X17575Y570387D01*
X17239Y570584D01*
X16907Y570788D01*
X16580Y571000D01*
X16259Y571221D01*
X15943Y571449D01*
X15633Y571685D01*
X15329Y571928D01*
X15031Y572179D01*
X14739Y572437D01*
X14454Y572703D01*
X14175Y572975D01*
X13903Y573254D01*
X13637Y573539D01*
X13379Y573831D01*
X13128Y574129D01*
X12885Y574433D01*
X12649Y574743D01*
X12421Y575059D01*
X12200Y575380D01*
X11988Y575707D01*
X11784Y576039D01*
X11587Y576375D01*
X11399Y576717D01*
X11220Y577062D01*
X11049Y577413D01*
X10887Y577767D01*
X10733Y578125D01*
X10589Y578487D01*
X10453Y578852D01*
X10326Y579220D01*
X10209Y579592D01*
X10100Y579966D01*
X10001Y580343D01*
X9911Y580722D01*
X9830Y581103D01*
X9759Y581486D01*
X9697Y581871D01*
X9644Y582257D01*
X9601Y582644D01*
X9568Y583032D01*
X9544Y583421D01*
X9530Y583810D01*
X9525Y584200D01*
M02*
