G04 EAGLE Gerber RS-274X export*
G75*
%MOMM*%
%FSLAX34Y34*%
%LPD*%
%INSilkscreen Top*%
%IPPOS*%
%AMOC8*
5,1,8,0,0,1.08239X$1,22.5*%
G01*
%ADD10C,0.152400*%
%ADD11C,0.101600*%
%ADD12C,0.127000*%
%ADD13C,0.160000*%
%ADD14C,0.203200*%


D10*
X6350Y584200D02*
X6356Y584668D01*
X6373Y585135D01*
X6402Y585601D01*
X6442Y586067D01*
X6493Y586532D01*
X6556Y586995D01*
X6630Y587457D01*
X6716Y587916D01*
X6813Y588374D01*
X6921Y588829D01*
X7040Y589281D01*
X7170Y589730D01*
X7311Y590176D01*
X7464Y590618D01*
X7626Y591056D01*
X7800Y591490D01*
X7984Y591920D01*
X8179Y592345D01*
X8384Y592765D01*
X8599Y593180D01*
X8825Y593590D01*
X9060Y593994D01*
X9306Y594392D01*
X9561Y594784D01*
X9825Y595169D01*
X10099Y595548D01*
X10382Y595920D01*
X10674Y596285D01*
X10975Y596643D01*
X11285Y596993D01*
X11603Y597336D01*
X11930Y597670D01*
X12264Y597997D01*
X12607Y598315D01*
X12957Y598625D01*
X13315Y598926D01*
X13680Y599218D01*
X14052Y599501D01*
X14431Y599775D01*
X14816Y600039D01*
X15208Y600294D01*
X15606Y600540D01*
X16010Y600775D01*
X16420Y601001D01*
X16835Y601216D01*
X17255Y601421D01*
X17680Y601616D01*
X18110Y601800D01*
X18544Y601974D01*
X18982Y602136D01*
X19424Y602289D01*
X19870Y602430D01*
X20319Y602560D01*
X20771Y602679D01*
X21226Y602787D01*
X21684Y602884D01*
X22143Y602970D01*
X22605Y603044D01*
X23068Y603107D01*
X23533Y603158D01*
X23999Y603198D01*
X24465Y603227D01*
X24932Y603244D01*
X25400Y603250D01*
X25868Y603244D01*
X26335Y603227D01*
X26801Y603198D01*
X27267Y603158D01*
X27732Y603107D01*
X28195Y603044D01*
X28657Y602970D01*
X29116Y602884D01*
X29574Y602787D01*
X30029Y602679D01*
X30481Y602560D01*
X30930Y602430D01*
X31376Y602289D01*
X31818Y602136D01*
X32256Y601974D01*
X32690Y601800D01*
X33120Y601616D01*
X33545Y601421D01*
X33965Y601216D01*
X34380Y601001D01*
X34790Y600775D01*
X35194Y600540D01*
X35592Y600294D01*
X35984Y600039D01*
X36369Y599775D01*
X36748Y599501D01*
X37120Y599218D01*
X37485Y598926D01*
X37843Y598625D01*
X38193Y598315D01*
X38536Y597997D01*
X38870Y597670D01*
X39197Y597336D01*
X39515Y596993D01*
X39825Y596643D01*
X40126Y596285D01*
X40418Y595920D01*
X40701Y595548D01*
X40975Y595169D01*
X41239Y594784D01*
X41494Y594392D01*
X41740Y593994D01*
X41975Y593590D01*
X42201Y593180D01*
X42416Y592765D01*
X42621Y592345D01*
X42816Y591920D01*
X43000Y591490D01*
X43174Y591056D01*
X43336Y590618D01*
X43489Y590176D01*
X43630Y589730D01*
X43760Y589281D01*
X43879Y588829D01*
X43987Y588374D01*
X44084Y587916D01*
X44170Y587457D01*
X44244Y586995D01*
X44307Y586532D01*
X44358Y586067D01*
X44398Y585601D01*
X44427Y585135D01*
X44444Y584668D01*
X44450Y584200D01*
X44444Y583732D01*
X44427Y583265D01*
X44398Y582799D01*
X44358Y582333D01*
X44307Y581868D01*
X44244Y581405D01*
X44170Y580943D01*
X44084Y580484D01*
X43987Y580026D01*
X43879Y579571D01*
X43760Y579119D01*
X43630Y578670D01*
X43489Y578224D01*
X43336Y577782D01*
X43174Y577344D01*
X43000Y576910D01*
X42816Y576480D01*
X42621Y576055D01*
X42416Y575635D01*
X42201Y575220D01*
X41975Y574810D01*
X41740Y574406D01*
X41494Y574008D01*
X41239Y573616D01*
X40975Y573231D01*
X40701Y572852D01*
X40418Y572480D01*
X40126Y572115D01*
X39825Y571757D01*
X39515Y571407D01*
X39197Y571064D01*
X38870Y570730D01*
X38536Y570403D01*
X38193Y570085D01*
X37843Y569775D01*
X37485Y569474D01*
X37120Y569182D01*
X36748Y568899D01*
X36369Y568625D01*
X35984Y568361D01*
X35592Y568106D01*
X35194Y567860D01*
X34790Y567625D01*
X34380Y567399D01*
X33965Y567184D01*
X33545Y566979D01*
X33120Y566784D01*
X32690Y566600D01*
X32256Y566426D01*
X31818Y566264D01*
X31376Y566111D01*
X30930Y565970D01*
X30481Y565840D01*
X30029Y565721D01*
X29574Y565613D01*
X29116Y565516D01*
X28657Y565430D01*
X28195Y565356D01*
X27732Y565293D01*
X27267Y565242D01*
X26801Y565202D01*
X26335Y565173D01*
X25868Y565156D01*
X25400Y565150D01*
X24932Y565156D01*
X24465Y565173D01*
X23999Y565202D01*
X23533Y565242D01*
X23068Y565293D01*
X22605Y565356D01*
X22143Y565430D01*
X21684Y565516D01*
X21226Y565613D01*
X20771Y565721D01*
X20319Y565840D01*
X19870Y565970D01*
X19424Y566111D01*
X18982Y566264D01*
X18544Y566426D01*
X18110Y566600D01*
X17680Y566784D01*
X17255Y566979D01*
X16835Y567184D01*
X16420Y567399D01*
X16010Y567625D01*
X15606Y567860D01*
X15208Y568106D01*
X14816Y568361D01*
X14431Y568625D01*
X14052Y568899D01*
X13680Y569182D01*
X13315Y569474D01*
X12957Y569775D01*
X12607Y570085D01*
X12264Y570403D01*
X11930Y570730D01*
X11603Y571064D01*
X11285Y571407D01*
X10975Y571757D01*
X10674Y572115D01*
X10382Y572480D01*
X10099Y572852D01*
X9825Y573231D01*
X9561Y573616D01*
X9306Y574008D01*
X9060Y574406D01*
X8825Y574810D01*
X8599Y575220D01*
X8384Y575635D01*
X8179Y576055D01*
X7984Y576480D01*
X7800Y576910D01*
X7626Y577344D01*
X7464Y577782D01*
X7311Y578224D01*
X7170Y578670D01*
X7040Y579119D01*
X6921Y579571D01*
X6813Y580026D01*
X6716Y580484D01*
X6630Y580943D01*
X6556Y581405D01*
X6493Y581868D01*
X6442Y582333D01*
X6402Y582799D01*
X6373Y583265D01*
X6356Y583732D01*
X6350Y584200D01*
X122668Y480822D02*
X136226Y480822D01*
X138938Y483534D01*
X138938Y488957D01*
X136226Y491669D01*
X122668Y491669D01*
X128091Y497194D02*
X138938Y497194D01*
X128091Y497194D02*
X122668Y502617D01*
X128091Y508040D01*
X138938Y508040D01*
X130803Y508040D02*
X130803Y497194D01*
X138938Y513565D02*
X122668Y513565D01*
X122668Y521700D01*
X125380Y524412D01*
X130803Y524412D01*
X133515Y521700D01*
X133515Y513565D01*
X133515Y518988D02*
X138938Y524412D01*
X138938Y535360D02*
X122668Y535360D01*
X122668Y529937D02*
X122668Y540783D01*
D11*
X20751Y538574D02*
X18548Y540777D01*
X14141Y540777D01*
X11938Y538574D01*
X11938Y529761D01*
X14141Y527558D01*
X18548Y527558D01*
X20751Y529761D01*
X20751Y534168D01*
X16344Y534168D01*
X25035Y540777D02*
X25035Y527558D01*
X33848Y527558D02*
X25035Y540777D01*
X33848Y540777D02*
X33848Y527558D01*
X38133Y527558D02*
X38133Y540777D01*
X38133Y527558D02*
X44742Y527558D01*
X46945Y529761D01*
X46945Y538574D01*
X44742Y540777D01*
X38133Y540777D01*
X17614Y516647D02*
X17614Y503428D01*
X13208Y516647D02*
X22021Y516647D01*
X26305Y516647D02*
X35118Y503428D01*
X26305Y503428D02*
X35118Y516647D01*
X14478Y491247D02*
X14478Y478028D01*
X14478Y491247D02*
X21088Y491247D01*
X23291Y489044D01*
X23291Y484638D01*
X21088Y482434D01*
X14478Y482434D01*
X18884Y482434D02*
X23291Y478028D01*
X36388Y478028D02*
X27575Y491247D01*
X36388Y491247D02*
X27575Y478028D01*
D10*
X122840Y340539D02*
X120128Y337827D01*
X120128Y332404D01*
X122840Y329692D01*
X125551Y329692D01*
X128263Y332404D01*
X128263Y337827D01*
X130975Y340539D01*
X133686Y340539D01*
X136398Y337827D01*
X136398Y332404D01*
X133686Y329692D01*
X136398Y346064D02*
X120128Y346064D01*
X120128Y354199D01*
X122840Y356910D01*
X128263Y356910D01*
X130975Y354199D01*
X130975Y346064D01*
X136398Y362435D02*
X136398Y367858D01*
X136398Y365147D02*
X120128Y365147D01*
X120128Y367858D02*
X120128Y362435D01*
D11*
X15671Y373474D02*
X13468Y375677D01*
X9061Y375677D01*
X6858Y373474D01*
X6858Y371271D01*
X9061Y369068D01*
X13468Y369068D01*
X15671Y366864D01*
X15671Y364661D01*
X13468Y362458D01*
X9061Y362458D01*
X6858Y364661D01*
X26565Y375677D02*
X28768Y373474D01*
X26565Y375677D02*
X22158Y375677D01*
X19955Y373474D01*
X19955Y364661D01*
X22158Y362458D01*
X26565Y362458D01*
X28768Y364661D01*
X33053Y362458D02*
X33053Y375677D01*
X41865Y375677D02*
X33053Y366864D01*
X35256Y369068D02*
X41865Y362458D01*
X12534Y350277D02*
X12534Y337058D01*
X8128Y350277D02*
X16941Y350277D01*
X21225Y350277D02*
X30038Y337058D01*
X21225Y337058D02*
X30038Y350277D01*
X8128Y324877D02*
X8128Y311658D01*
X8128Y324877D02*
X14738Y324877D01*
X16941Y322674D01*
X16941Y318268D01*
X14738Y316064D01*
X8128Y316064D01*
X12534Y316064D02*
X16941Y311658D01*
X30038Y311658D02*
X21225Y324877D01*
X30038Y324877D02*
X21225Y311658D01*
X14738Y300747D02*
X16941Y298544D01*
X14738Y300747D02*
X10331Y300747D01*
X8128Y298544D01*
X8128Y289731D01*
X10331Y287528D01*
X14738Y287528D01*
X16941Y289731D01*
X27835Y300747D02*
X30038Y298544D01*
X27835Y300747D02*
X23428Y300747D01*
X21225Y298544D01*
X21225Y296341D01*
X23428Y294138D01*
X27835Y294138D01*
X30038Y291934D01*
X30038Y289731D01*
X27835Y287528D01*
X23428Y287528D01*
X21225Y289731D01*
D10*
X118858Y172212D02*
X135128Y172212D01*
X118858Y172212D02*
X118858Y180347D01*
X121570Y183059D01*
X126993Y183059D01*
X129705Y180347D01*
X129705Y172212D01*
X135128Y188584D02*
X118858Y188584D01*
X129705Y194007D02*
X135128Y188584D01*
X129705Y194007D02*
X135128Y199430D01*
X118858Y199430D01*
X118858Y204955D02*
X135128Y204955D01*
X118858Y204955D02*
X118858Y213090D01*
X121570Y215802D01*
X126993Y215802D01*
X129705Y213090D01*
X129705Y204955D01*
X129705Y210378D02*
X135128Y215802D01*
D11*
X16941Y219208D02*
X8128Y219208D01*
X12534Y223614D02*
X12534Y214801D01*
X21225Y221411D02*
X25632Y225817D01*
X25632Y212598D01*
X30038Y212598D02*
X21225Y212598D01*
X34323Y212598D02*
X43135Y212598D01*
X34323Y212598D02*
X43135Y221411D01*
X43135Y223614D01*
X40932Y225817D01*
X36526Y225817D01*
X34323Y223614D01*
X12198Y197877D02*
X14401Y195674D01*
X12198Y197877D02*
X7791Y197877D01*
X5588Y195674D01*
X5588Y186861D01*
X7791Y184658D01*
X12198Y184658D01*
X14401Y186861D01*
X14401Y191268D01*
X9994Y191268D01*
X18685Y197877D02*
X18685Y184658D01*
X27498Y184658D02*
X18685Y197877D01*
X27498Y197877D02*
X27498Y184658D01*
X31783Y184658D02*
X31783Y197877D01*
X31783Y184658D02*
X38392Y184658D01*
X40595Y186861D01*
X40595Y195674D01*
X38392Y197877D01*
X31783Y197877D01*
D10*
X339852Y77992D02*
X339852Y61722D01*
X339852Y77992D02*
X347987Y77992D01*
X350699Y75280D01*
X350699Y69857D01*
X347987Y67145D01*
X339852Y67145D01*
X356224Y61722D02*
X356224Y77992D01*
X364359Y77992D01*
X367070Y75280D01*
X367070Y69857D01*
X364359Y67145D01*
X356224Y67145D01*
X361647Y67145D02*
X367070Y61722D01*
X375307Y77992D02*
X380730Y77992D01*
X375307Y77992D02*
X372595Y75280D01*
X372595Y64434D01*
X375307Y61722D01*
X380730Y61722D01*
X383442Y64434D01*
X383442Y75280D01*
X380730Y77992D01*
X397102Y77992D02*
X399813Y75280D01*
X397102Y77992D02*
X391678Y77992D01*
X388967Y75280D01*
X388967Y64434D01*
X391678Y61722D01*
X397102Y61722D01*
X399813Y64434D01*
X399813Y69857D01*
X394390Y69857D01*
D11*
X334518Y45477D02*
X334518Y32258D01*
X341128Y32258D01*
X343331Y34461D01*
X343331Y43274D01*
X341128Y45477D01*
X334518Y45477D01*
X347615Y32258D02*
X352022Y32258D01*
X349818Y32258D02*
X349818Y45477D01*
X347615Y45477D02*
X352022Y45477D01*
X358550Y45477D02*
X362956Y45477D01*
X358550Y45477D02*
X356347Y43274D01*
X356347Y34461D01*
X358550Y32258D01*
X362956Y32258D01*
X365160Y34461D01*
X365160Y43274D01*
X362956Y45477D01*
X227236Y20751D02*
X225033Y18548D01*
X225033Y14141D01*
X227236Y11938D01*
X229439Y11938D01*
X231642Y14141D01*
X231642Y18548D01*
X233846Y20751D01*
X236049Y20751D01*
X238252Y18548D01*
X238252Y14141D01*
X236049Y11938D01*
X238252Y25035D02*
X225033Y25035D01*
X233846Y29442D02*
X238252Y25035D01*
X233846Y29442D02*
X238252Y33848D01*
X225033Y33848D01*
X225033Y44742D02*
X227236Y46945D01*
X225033Y44742D02*
X225033Y40336D01*
X227236Y38133D01*
X236049Y38133D01*
X238252Y40336D01*
X238252Y44742D01*
X236049Y46945D01*
X238252Y51230D02*
X225033Y51230D01*
X238252Y51230D02*
X238252Y60043D01*
X238252Y64327D02*
X225033Y64327D01*
X233846Y64327D02*
X225033Y73140D01*
X231642Y66530D02*
X238252Y73140D01*
X282708Y72147D02*
X284911Y69944D01*
X282708Y72147D02*
X278301Y72147D01*
X276098Y69944D01*
X276098Y61131D01*
X278301Y58928D01*
X282708Y58928D01*
X284911Y61131D01*
X284911Y65538D01*
X280504Y65538D01*
X553963Y500888D02*
X567182Y500888D01*
X553963Y500888D02*
X553963Y507498D01*
X556166Y509701D01*
X560572Y509701D01*
X562776Y507498D01*
X562776Y500888D01*
X553963Y516188D02*
X553963Y520595D01*
X553963Y516188D02*
X556166Y513985D01*
X564979Y513985D01*
X567182Y516188D01*
X567182Y520595D01*
X564979Y522798D01*
X556166Y522798D01*
X553963Y520595D01*
X553963Y527083D02*
X567182Y527083D01*
X553963Y527083D02*
X553963Y533692D01*
X556166Y535895D01*
X560572Y535895D01*
X562776Y533692D01*
X562776Y527083D01*
X562776Y531489D02*
X567182Y535895D01*
X567182Y544586D02*
X553963Y544586D01*
X553963Y540180D02*
X553963Y548993D01*
X558369Y566374D02*
X553963Y570781D01*
X567182Y570781D01*
X567182Y575187D02*
X567182Y566374D01*
X437642Y357378D02*
X424423Y357378D01*
X424423Y363988D01*
X426626Y366191D01*
X431032Y366191D01*
X433236Y363988D01*
X433236Y357378D01*
X424423Y372678D02*
X424423Y377085D01*
X424423Y372678D02*
X426626Y370475D01*
X435439Y370475D01*
X437642Y372678D01*
X437642Y377085D01*
X435439Y379288D01*
X426626Y379288D01*
X424423Y377085D01*
X424423Y383573D02*
X437642Y383573D01*
X424423Y383573D02*
X424423Y390182D01*
X426626Y392385D01*
X431032Y392385D01*
X433236Y390182D01*
X433236Y383573D01*
X433236Y387979D02*
X437642Y392385D01*
X437642Y401076D02*
X424423Y401076D01*
X424423Y396670D02*
X424423Y405483D01*
X437642Y422864D02*
X437642Y431677D01*
X437642Y422864D02*
X428829Y431677D01*
X426626Y431677D01*
X424423Y429474D01*
X424423Y425067D01*
X426626Y422864D01*
X432043Y198628D02*
X445262Y198628D01*
X432043Y198628D02*
X432043Y205238D01*
X434246Y207441D01*
X438652Y207441D01*
X440856Y205238D01*
X440856Y198628D01*
X432043Y213928D02*
X432043Y218335D01*
X432043Y213928D02*
X434246Y211725D01*
X443059Y211725D01*
X445262Y213928D01*
X445262Y218335D01*
X443059Y220538D01*
X434246Y220538D01*
X432043Y218335D01*
X432043Y224823D02*
X445262Y224823D01*
X432043Y224823D02*
X432043Y231432D01*
X434246Y233635D01*
X438652Y233635D01*
X440856Y231432D01*
X440856Y224823D01*
X440856Y229229D02*
X445262Y233635D01*
X445262Y242326D02*
X432043Y242326D01*
X432043Y237920D02*
X432043Y246733D01*
X434246Y264114D02*
X432043Y266317D01*
X432043Y270724D01*
X434246Y272927D01*
X436449Y272927D01*
X438652Y270724D01*
X438652Y268521D01*
X438652Y270724D02*
X440856Y272927D01*
X443059Y272927D01*
X445262Y270724D01*
X445262Y266317D01*
X443059Y264114D01*
X449072Y44958D02*
X435853Y44958D01*
X435853Y51568D01*
X438056Y53771D01*
X442462Y53771D01*
X444666Y51568D01*
X444666Y44958D01*
X435853Y60258D02*
X435853Y64665D01*
X435853Y60258D02*
X438056Y58055D01*
X446869Y58055D01*
X449072Y60258D01*
X449072Y64665D01*
X446869Y66868D01*
X438056Y66868D01*
X435853Y64665D01*
X435853Y71153D02*
X449072Y71153D01*
X435853Y71153D02*
X435853Y77762D01*
X438056Y79965D01*
X442462Y79965D01*
X444666Y77762D01*
X444666Y71153D01*
X444666Y75559D02*
X449072Y79965D01*
X449072Y88656D02*
X435853Y88656D01*
X435853Y84250D02*
X435853Y93063D01*
X435853Y117054D02*
X449072Y117054D01*
X442462Y110444D02*
X435853Y117054D01*
X442462Y119257D02*
X442462Y110444D01*
D12*
X221615Y508127D02*
X221615Y523634D01*
X229369Y523634D01*
X231953Y521050D01*
X231953Y515881D01*
X229369Y513296D01*
X221615Y513296D01*
X226784Y513296D02*
X231953Y508127D01*
X239636Y518465D02*
X244805Y518465D01*
X247389Y515881D01*
X247389Y508127D01*
X239636Y508127D01*
X237051Y510712D01*
X239636Y513296D01*
X247389Y513296D01*
X252487Y508127D02*
X260241Y508127D01*
X262825Y510712D01*
X260241Y513296D01*
X255072Y513296D01*
X252487Y515881D01*
X255072Y518465D01*
X262825Y518465D01*
X267923Y518465D02*
X267923Y502958D01*
X267923Y518465D02*
X275677Y518465D01*
X278261Y515881D01*
X278261Y510712D01*
X275677Y508127D01*
X267923Y508127D01*
X283359Y508127D02*
X283359Y523634D01*
X283359Y508127D02*
X291113Y508127D01*
X293697Y510712D01*
X293697Y515881D01*
X291113Y518465D01*
X283359Y518465D01*
X301380Y508127D02*
X306549Y508127D01*
X301380Y508127D02*
X298795Y510712D01*
X298795Y515881D01*
X301380Y518465D01*
X306549Y518465D01*
X309133Y515881D01*
X309133Y513296D01*
X298795Y513296D01*
X314231Y508127D02*
X314231Y518465D01*
X314231Y513296D02*
X319400Y518465D01*
X321985Y518465D01*
X327095Y518465D02*
X327095Y508127D01*
X327095Y513296D02*
X332264Y518465D01*
X334848Y518465D01*
X339958Y518465D02*
X339958Y510712D01*
X342543Y508127D01*
X350296Y508127D01*
X350296Y505542D02*
X350296Y518465D01*
X350296Y505542D02*
X347712Y502958D01*
X345127Y502958D01*
X221615Y498488D02*
X221615Y482981D01*
X221615Y498488D02*
X229369Y498488D01*
X231953Y495904D01*
X231953Y490735D01*
X229369Y488150D01*
X221615Y488150D01*
X237051Y493319D02*
X239636Y493319D01*
X239636Y482981D01*
X242220Y482981D02*
X237051Y482981D01*
X239636Y498488D02*
X239636Y501073D01*
X221615Y473342D02*
X221615Y457835D01*
X221615Y473342D02*
X229369Y473342D01*
X231953Y470758D01*
X231953Y465589D01*
X229369Y463004D01*
X221615Y463004D01*
X237051Y457835D02*
X242220Y457835D01*
X239636Y457835D02*
X239636Y473342D01*
X242220Y473342D02*
X237051Y473342D01*
X255095Y473342D02*
X257680Y470758D01*
X255095Y473342D02*
X249926Y473342D01*
X247342Y470758D01*
X247342Y460420D01*
X249926Y457835D01*
X255095Y457835D01*
X257680Y460420D01*
X265362Y473342D02*
X270531Y473342D01*
X265362Y473342D02*
X262778Y470758D01*
X262778Y460420D01*
X265362Y457835D01*
X270531Y457835D01*
X273116Y460420D01*
X273116Y470758D01*
X270531Y473342D01*
D11*
X55118Y26427D02*
X55118Y13208D01*
X61728Y13208D01*
X63931Y15411D01*
X63931Y24224D01*
X61728Y26427D01*
X55118Y26427D01*
X68215Y26427D02*
X68215Y13208D01*
X77028Y13208D01*
X81313Y13208D02*
X81313Y26427D01*
X87922Y26427D01*
X90125Y24224D01*
X90125Y22021D01*
X87922Y19818D01*
X90125Y17614D01*
X90125Y15411D01*
X87922Y13208D01*
X81313Y13208D01*
X81313Y19818D02*
X87922Y19818D01*
D10*
X578598Y343662D02*
X594868Y343662D01*
X584021Y349085D02*
X578598Y343662D01*
X584021Y349085D02*
X578598Y354509D01*
X594868Y354509D01*
X584021Y362745D02*
X584021Y368169D01*
X586733Y370880D01*
X594868Y370880D01*
X594868Y362745D01*
X592156Y360034D01*
X589445Y362745D01*
X589445Y370880D01*
X600291Y381828D02*
X600291Y384540D01*
X597580Y387252D01*
X584021Y387252D01*
X584021Y379117D01*
X586733Y376405D01*
X592156Y376405D01*
X594868Y379117D01*
X594868Y387252D01*
X594868Y400912D02*
X578598Y400912D01*
X586733Y392777D01*
X586733Y403623D01*
X594868Y425520D02*
X594868Y430943D01*
X594868Y428231D02*
X578598Y428231D01*
X578598Y425520D02*
X578598Y430943D01*
X584021Y436434D02*
X594868Y436434D01*
X584021Y436434D02*
X584021Y444569D01*
X586733Y447281D01*
X594868Y447281D01*
X592156Y455517D02*
X581310Y455517D01*
X592156Y455517D02*
X594868Y458229D01*
X584021Y458229D02*
X584021Y452806D01*
X594868Y466432D02*
X594868Y471855D01*
X594868Y466432D02*
X592156Y463720D01*
X586733Y463720D01*
X584021Y466432D01*
X584021Y471855D01*
X586733Y474567D01*
X589445Y474567D01*
X589445Y463720D01*
X594868Y480092D02*
X584021Y480092D01*
X584021Y485515D02*
X589445Y480092D01*
X584021Y485515D02*
X584021Y488227D01*
X581310Y496446D02*
X594868Y496446D01*
X581310Y496446D02*
X578598Y499158D01*
X586733Y499158D02*
X586733Y493735D01*
X584021Y507361D02*
X584021Y512784D01*
X586733Y515496D01*
X594868Y515496D01*
X594868Y507361D01*
X592156Y504649D01*
X589445Y507361D01*
X589445Y515496D01*
X584021Y523732D02*
X584021Y531867D01*
X584021Y523732D02*
X586733Y521021D01*
X592156Y521021D01*
X594868Y523732D01*
X594868Y531867D01*
X594868Y540104D02*
X594868Y545527D01*
X594868Y540104D02*
X592156Y537392D01*
X586733Y537392D01*
X584021Y540104D01*
X584021Y545527D01*
X586733Y548239D01*
X589445Y548239D01*
X589445Y537392D01*
X579868Y62409D02*
X579868Y51562D01*
X596138Y51562D01*
X596138Y62409D01*
X588003Y56985D02*
X588003Y51562D01*
X596138Y67934D02*
X579868Y67934D01*
X579868Y76069D01*
X582580Y78780D01*
X588003Y78780D01*
X590715Y76069D01*
X590715Y67934D01*
X596138Y84305D02*
X596138Y89728D01*
X596138Y87017D02*
X579868Y87017D01*
X579868Y89728D02*
X579868Y84305D01*
X579868Y103354D02*
X582580Y106066D01*
X579868Y103354D02*
X579868Y97931D01*
X582580Y95220D01*
X593426Y95220D01*
X596138Y97931D01*
X596138Y103354D01*
X593426Y106066D01*
X596138Y127963D02*
X579868Y127963D01*
X579868Y136098D01*
X582580Y138809D01*
X588003Y138809D01*
X590715Y136098D01*
X590715Y127963D01*
X590715Y133386D02*
X596138Y138809D01*
X596138Y147046D02*
X596138Y152469D01*
X593426Y155181D01*
X588003Y155181D01*
X585291Y152469D01*
X585291Y147046D01*
X588003Y144334D01*
X593426Y144334D01*
X596138Y147046D01*
X596138Y160706D02*
X579868Y160706D01*
X596138Y160706D02*
X596138Y168841D01*
X593426Y171552D01*
X588003Y171552D01*
X585291Y168841D01*
X585291Y160706D01*
X596138Y179789D02*
X596138Y185212D01*
X593426Y187924D01*
X588003Y187924D01*
X585291Y185212D01*
X585291Y179789D01*
X588003Y177077D01*
X593426Y177077D01*
X596138Y179789D01*
X593426Y196161D02*
X582580Y196161D01*
X593426Y196161D02*
X596138Y198872D01*
X585291Y198872D02*
X585291Y193449D01*
X585291Y204363D02*
X585291Y215210D01*
X596138Y204363D01*
X596138Y215210D01*
X590715Y250952D02*
X579868Y250952D01*
X590715Y250952D02*
X596138Y256375D01*
X590715Y261799D01*
X579868Y261799D01*
X585291Y267324D02*
X579868Y272747D01*
X596138Y272747D01*
X596138Y267324D02*
X596138Y278170D01*
X557180Y66660D02*
X554468Y63948D01*
X554468Y58525D01*
X557180Y55813D01*
X559891Y55813D01*
X562603Y58525D01*
X562603Y63948D01*
X565315Y66660D01*
X568026Y66660D01*
X570738Y63948D01*
X570738Y58525D01*
X568026Y55813D01*
X568026Y72185D02*
X559891Y72185D01*
X568026Y72185D02*
X570738Y74896D01*
X570738Y83031D01*
X559891Y83031D01*
X559891Y88556D02*
X570738Y88556D01*
X559891Y88556D02*
X559891Y91268D01*
X562603Y93980D01*
X570738Y93980D01*
X562603Y93980D02*
X559891Y96691D01*
X562603Y99403D01*
X570738Y99403D01*
X570738Y104928D02*
X559891Y104928D01*
X559891Y107639D01*
X562603Y110351D01*
X570738Y110351D01*
X562603Y110351D02*
X559891Y113063D01*
X562603Y115774D01*
X570738Y115774D01*
X570738Y124011D02*
X570738Y129434D01*
X570738Y124011D02*
X568026Y121299D01*
X562603Y121299D01*
X559891Y124011D01*
X559891Y129434D01*
X562603Y132146D01*
X565315Y132146D01*
X565315Y121299D01*
X570738Y137671D02*
X559891Y137671D01*
X559891Y143094D02*
X565315Y137671D01*
X559891Y143094D02*
X559891Y145806D01*
X570738Y167685D02*
X570738Y178532D01*
X570738Y167685D02*
X559891Y178532D01*
X557180Y178532D01*
X554468Y175820D01*
X554468Y170397D01*
X557180Y167685D01*
X557180Y184057D02*
X568026Y184057D01*
X557180Y184057D02*
X554468Y186769D01*
X554468Y192192D01*
X557180Y194904D01*
X568026Y194904D01*
X570738Y192192D01*
X570738Y186769D01*
X568026Y184057D01*
X557180Y194904D01*
X570738Y200429D02*
X570738Y211275D01*
X570738Y200429D02*
X559891Y211275D01*
X557180Y211275D01*
X554468Y208564D01*
X554468Y203140D01*
X557180Y200429D01*
X557180Y216800D02*
X554468Y219512D01*
X554468Y224935D01*
X557180Y227647D01*
X559891Y227647D01*
X562603Y224935D01*
X562603Y222223D01*
X562603Y224935D02*
X565315Y227647D01*
X568026Y227647D01*
X570738Y224935D01*
X570738Y219512D01*
X568026Y216800D01*
D11*
X15671Y398874D02*
X13468Y401077D01*
X9061Y401077D01*
X6858Y398874D01*
X6858Y390061D01*
X9061Y387858D01*
X13468Y387858D01*
X15671Y390061D01*
X15671Y394468D01*
X11264Y394468D01*
X19955Y401077D02*
X19955Y387858D01*
X28768Y387858D02*
X19955Y401077D01*
X28768Y401077D02*
X28768Y387858D01*
X33053Y387858D02*
X33053Y401077D01*
X33053Y387858D02*
X39662Y387858D01*
X41865Y390061D01*
X41865Y398874D01*
X39662Y401077D01*
X33053Y401077D01*
D13*
X58800Y87390D02*
X58800Y78390D01*
X58800Y87390D02*
X42800Y87390D01*
X42800Y78390D01*
X58800Y66390D02*
X58800Y57390D01*
X42800Y57390D01*
X42800Y67390D01*
D12*
X34005Y62382D02*
X31759Y64627D01*
X38495Y64627D01*
X38495Y62382D02*
X38495Y66872D01*
X37372Y69748D02*
X34005Y69748D01*
X37372Y69748D02*
X38495Y70870D01*
X38495Y74238D01*
X34005Y74238D01*
X32882Y78237D02*
X38495Y78237D01*
X32882Y78237D02*
X31759Y79359D01*
X35127Y79359D02*
X35127Y77114D01*
D13*
X185800Y53100D02*
X185800Y44100D01*
X185800Y53100D02*
X169800Y53100D01*
X169800Y44100D01*
X185800Y32100D02*
X185800Y23100D01*
X169800Y23100D01*
X169800Y33100D01*
D12*
X191369Y37060D02*
X193615Y34815D01*
X191369Y37060D02*
X198105Y37060D01*
X198105Y34815D02*
X198105Y39306D01*
X196982Y42181D02*
X193615Y42181D01*
X196982Y42181D02*
X198105Y43304D01*
X198105Y46672D01*
X193615Y46672D01*
X192492Y50670D02*
X198105Y50670D01*
X192492Y50670D02*
X191369Y51793D01*
X194737Y51793D02*
X194737Y49548D01*
D10*
X93477Y220040D02*
X89748Y223769D01*
X100934Y223769D01*
X100934Y227497D02*
X100934Y220040D01*
X111200Y240400D02*
X51200Y240400D01*
X111200Y240400D02*
X111200Y166400D01*
X51200Y166400D01*
X51200Y184400D01*
X51200Y220400D02*
X51200Y240400D01*
X51200Y558400D02*
X111200Y558400D01*
X111200Y458400D02*
X51200Y458400D01*
X111200Y458400D02*
X111200Y558400D01*
X51200Y558400D02*
X51200Y543400D01*
X51200Y523400D02*
X51200Y493400D01*
X51200Y473400D02*
X51200Y458400D01*
X51200Y418200D02*
X111200Y418200D01*
X111200Y269600D01*
X51200Y269600D01*
X51200Y284100D01*
X51200Y304200D02*
X51300Y383500D01*
X51200Y403700D02*
X51200Y418200D01*
D11*
X473498Y568512D02*
X477396Y564614D01*
X473498Y568512D02*
X485192Y568512D01*
X485192Y564614D02*
X485192Y572410D01*
D13*
X460555Y568325D02*
X460557Y568434D01*
X460563Y568544D01*
X460573Y568653D01*
X460587Y568761D01*
X460605Y568869D01*
X460627Y568976D01*
X460652Y569083D01*
X460682Y569188D01*
X460715Y569292D01*
X460753Y569395D01*
X460794Y569496D01*
X460838Y569596D01*
X460886Y569694D01*
X460938Y569791D01*
X460993Y569885D01*
X461052Y569978D01*
X461114Y570068D01*
X461179Y570155D01*
X461248Y570241D01*
X461319Y570324D01*
X461394Y570404D01*
X461471Y570481D01*
X461551Y570556D01*
X461634Y570627D01*
X461720Y570696D01*
X461807Y570761D01*
X461897Y570823D01*
X461990Y570882D01*
X462084Y570937D01*
X462181Y570989D01*
X462279Y571037D01*
X462379Y571081D01*
X462480Y571122D01*
X462583Y571160D01*
X462687Y571193D01*
X462792Y571223D01*
X462899Y571248D01*
X463006Y571270D01*
X463114Y571288D01*
X463222Y571302D01*
X463331Y571312D01*
X463441Y571318D01*
X463550Y571320D01*
X463659Y571318D01*
X463769Y571312D01*
X463878Y571302D01*
X463986Y571288D01*
X464094Y571270D01*
X464201Y571248D01*
X464308Y571223D01*
X464413Y571193D01*
X464517Y571160D01*
X464620Y571122D01*
X464721Y571081D01*
X464821Y571037D01*
X464919Y570989D01*
X465016Y570937D01*
X465110Y570882D01*
X465203Y570823D01*
X465293Y570761D01*
X465380Y570696D01*
X465466Y570627D01*
X465549Y570556D01*
X465629Y570481D01*
X465706Y570404D01*
X465781Y570324D01*
X465852Y570241D01*
X465921Y570155D01*
X465986Y570068D01*
X466048Y569978D01*
X466107Y569885D01*
X466162Y569791D01*
X466214Y569694D01*
X466262Y569596D01*
X466306Y569496D01*
X466347Y569395D01*
X466385Y569292D01*
X466418Y569188D01*
X466448Y569083D01*
X466473Y568976D01*
X466495Y568869D01*
X466513Y568761D01*
X466527Y568653D01*
X466537Y568544D01*
X466543Y568434D01*
X466545Y568325D01*
X466543Y568216D01*
X466537Y568106D01*
X466527Y567997D01*
X466513Y567889D01*
X466495Y567781D01*
X466473Y567674D01*
X466448Y567567D01*
X466418Y567462D01*
X466385Y567358D01*
X466347Y567255D01*
X466306Y567154D01*
X466262Y567054D01*
X466214Y566956D01*
X466162Y566859D01*
X466107Y566765D01*
X466048Y566672D01*
X465986Y566582D01*
X465921Y566495D01*
X465852Y566409D01*
X465781Y566326D01*
X465706Y566246D01*
X465629Y566169D01*
X465549Y566094D01*
X465466Y566023D01*
X465380Y565954D01*
X465293Y565889D01*
X465203Y565827D01*
X465110Y565768D01*
X465016Y565713D01*
X464919Y565661D01*
X464821Y565613D01*
X464721Y565569D01*
X464620Y565528D01*
X464517Y565490D01*
X464413Y565457D01*
X464308Y565427D01*
X464201Y565402D01*
X464094Y565380D01*
X463986Y565362D01*
X463878Y565348D01*
X463769Y565338D01*
X463659Y565332D01*
X463550Y565330D01*
X463441Y565332D01*
X463331Y565338D01*
X463222Y565348D01*
X463114Y565362D01*
X463006Y565380D01*
X462899Y565402D01*
X462792Y565427D01*
X462687Y565457D01*
X462583Y565490D01*
X462480Y565528D01*
X462379Y565569D01*
X462279Y565613D01*
X462181Y565661D01*
X462084Y565713D01*
X461990Y565768D01*
X461897Y565827D01*
X461807Y565889D01*
X461720Y565954D01*
X461634Y566023D01*
X461551Y566094D01*
X461471Y566169D01*
X461394Y566246D01*
X461319Y566326D01*
X461248Y566409D01*
X461179Y566495D01*
X461114Y566582D01*
X461052Y566672D01*
X460993Y566765D01*
X460938Y566859D01*
X460886Y566956D01*
X460838Y567054D01*
X460794Y567154D01*
X460753Y567255D01*
X460715Y567358D01*
X460682Y567462D01*
X460652Y567567D01*
X460627Y567674D01*
X460605Y567781D01*
X460587Y567889D01*
X460573Y567997D01*
X460563Y568106D01*
X460557Y568216D01*
X460555Y568325D01*
X461840Y568325D02*
X461842Y568408D01*
X461848Y568490D01*
X461858Y568572D01*
X461872Y568654D01*
X461890Y568734D01*
X461911Y568814D01*
X461937Y568893D01*
X461966Y568970D01*
X461999Y569046D01*
X462036Y569120D01*
X462076Y569192D01*
X462120Y569262D01*
X462167Y569330D01*
X462217Y569396D01*
X462270Y569459D01*
X462326Y569519D01*
X462385Y569577D01*
X462447Y569632D01*
X462512Y569684D01*
X462579Y569732D01*
X462648Y569778D01*
X462719Y569819D01*
X462792Y569858D01*
X462867Y569893D01*
X462944Y569924D01*
X463022Y569951D01*
X463101Y569975D01*
X463181Y569995D01*
X463262Y570011D01*
X463344Y570023D01*
X463426Y570031D01*
X463509Y570035D01*
X463591Y570035D01*
X463674Y570031D01*
X463756Y570023D01*
X463838Y570011D01*
X463919Y569995D01*
X463999Y569975D01*
X464078Y569951D01*
X464156Y569924D01*
X464233Y569893D01*
X464308Y569858D01*
X464381Y569819D01*
X464452Y569778D01*
X464521Y569732D01*
X464588Y569684D01*
X464653Y569632D01*
X464715Y569577D01*
X464774Y569519D01*
X464830Y569459D01*
X464883Y569396D01*
X464933Y569330D01*
X464980Y569262D01*
X465024Y569192D01*
X465064Y569120D01*
X465101Y569046D01*
X465134Y568970D01*
X465163Y568893D01*
X465189Y568814D01*
X465210Y568734D01*
X465228Y568654D01*
X465242Y568572D01*
X465252Y568490D01*
X465258Y568408D01*
X465260Y568325D01*
X465258Y568242D01*
X465252Y568160D01*
X465242Y568078D01*
X465228Y567996D01*
X465210Y567916D01*
X465189Y567836D01*
X465163Y567757D01*
X465134Y567680D01*
X465101Y567604D01*
X465064Y567530D01*
X465024Y567458D01*
X464980Y567388D01*
X464933Y567320D01*
X464883Y567254D01*
X464830Y567191D01*
X464774Y567131D01*
X464715Y567073D01*
X464653Y567018D01*
X464588Y566966D01*
X464521Y566918D01*
X464452Y566872D01*
X464381Y566831D01*
X464308Y566792D01*
X464233Y566757D01*
X464156Y566726D01*
X464078Y566699D01*
X463999Y566675D01*
X463919Y566655D01*
X463838Y566639D01*
X463756Y566627D01*
X463674Y566619D01*
X463591Y566615D01*
X463509Y566615D01*
X463426Y566619D01*
X463344Y566627D01*
X463262Y566639D01*
X463181Y566655D01*
X463101Y566675D01*
X463022Y566699D01*
X462944Y566726D01*
X462867Y566757D01*
X462792Y566792D01*
X462719Y566831D01*
X462648Y566872D01*
X462579Y566918D01*
X462512Y566966D01*
X462447Y567018D01*
X462385Y567073D01*
X462326Y567131D01*
X462270Y567191D01*
X462217Y567254D01*
X462167Y567320D01*
X462120Y567388D01*
X462076Y567458D01*
X462036Y567530D01*
X461999Y567604D01*
X461966Y567680D01*
X461937Y567757D01*
X461911Y567836D01*
X461890Y567916D01*
X461872Y567996D01*
X461858Y568078D01*
X461848Y568160D01*
X461842Y568242D01*
X461840Y568325D01*
D14*
X482600Y596900D02*
X533400Y596900D01*
X533400Y469900D02*
X482600Y469900D01*
X533400Y571500D02*
X533400Y596900D01*
X533400Y495300D02*
X533400Y469900D01*
X482600Y469900D02*
X482600Y495300D01*
X482600Y584200D02*
X482600Y596900D01*
D11*
X473498Y111312D02*
X477396Y107414D01*
X473498Y111312D02*
X485192Y111312D01*
X485192Y107414D02*
X485192Y115210D01*
D13*
X460555Y111125D02*
X460557Y111234D01*
X460563Y111344D01*
X460573Y111453D01*
X460587Y111561D01*
X460605Y111669D01*
X460627Y111776D01*
X460652Y111883D01*
X460682Y111988D01*
X460715Y112092D01*
X460753Y112195D01*
X460794Y112296D01*
X460838Y112396D01*
X460886Y112494D01*
X460938Y112591D01*
X460993Y112685D01*
X461052Y112778D01*
X461114Y112868D01*
X461179Y112955D01*
X461248Y113041D01*
X461319Y113124D01*
X461394Y113204D01*
X461471Y113281D01*
X461551Y113356D01*
X461634Y113427D01*
X461720Y113496D01*
X461807Y113561D01*
X461897Y113623D01*
X461990Y113682D01*
X462084Y113737D01*
X462181Y113789D01*
X462279Y113837D01*
X462379Y113881D01*
X462480Y113922D01*
X462583Y113960D01*
X462687Y113993D01*
X462792Y114023D01*
X462899Y114048D01*
X463006Y114070D01*
X463114Y114088D01*
X463222Y114102D01*
X463331Y114112D01*
X463441Y114118D01*
X463550Y114120D01*
X463659Y114118D01*
X463769Y114112D01*
X463878Y114102D01*
X463986Y114088D01*
X464094Y114070D01*
X464201Y114048D01*
X464308Y114023D01*
X464413Y113993D01*
X464517Y113960D01*
X464620Y113922D01*
X464721Y113881D01*
X464821Y113837D01*
X464919Y113789D01*
X465016Y113737D01*
X465110Y113682D01*
X465203Y113623D01*
X465293Y113561D01*
X465380Y113496D01*
X465466Y113427D01*
X465549Y113356D01*
X465629Y113281D01*
X465706Y113204D01*
X465781Y113124D01*
X465852Y113041D01*
X465921Y112955D01*
X465986Y112868D01*
X466048Y112778D01*
X466107Y112685D01*
X466162Y112591D01*
X466214Y112494D01*
X466262Y112396D01*
X466306Y112296D01*
X466347Y112195D01*
X466385Y112092D01*
X466418Y111988D01*
X466448Y111883D01*
X466473Y111776D01*
X466495Y111669D01*
X466513Y111561D01*
X466527Y111453D01*
X466537Y111344D01*
X466543Y111234D01*
X466545Y111125D01*
X466543Y111016D01*
X466537Y110906D01*
X466527Y110797D01*
X466513Y110689D01*
X466495Y110581D01*
X466473Y110474D01*
X466448Y110367D01*
X466418Y110262D01*
X466385Y110158D01*
X466347Y110055D01*
X466306Y109954D01*
X466262Y109854D01*
X466214Y109756D01*
X466162Y109659D01*
X466107Y109565D01*
X466048Y109472D01*
X465986Y109382D01*
X465921Y109295D01*
X465852Y109209D01*
X465781Y109126D01*
X465706Y109046D01*
X465629Y108969D01*
X465549Y108894D01*
X465466Y108823D01*
X465380Y108754D01*
X465293Y108689D01*
X465203Y108627D01*
X465110Y108568D01*
X465016Y108513D01*
X464919Y108461D01*
X464821Y108413D01*
X464721Y108369D01*
X464620Y108328D01*
X464517Y108290D01*
X464413Y108257D01*
X464308Y108227D01*
X464201Y108202D01*
X464094Y108180D01*
X463986Y108162D01*
X463878Y108148D01*
X463769Y108138D01*
X463659Y108132D01*
X463550Y108130D01*
X463441Y108132D01*
X463331Y108138D01*
X463222Y108148D01*
X463114Y108162D01*
X463006Y108180D01*
X462899Y108202D01*
X462792Y108227D01*
X462687Y108257D01*
X462583Y108290D01*
X462480Y108328D01*
X462379Y108369D01*
X462279Y108413D01*
X462181Y108461D01*
X462084Y108513D01*
X461990Y108568D01*
X461897Y108627D01*
X461807Y108689D01*
X461720Y108754D01*
X461634Y108823D01*
X461551Y108894D01*
X461471Y108969D01*
X461394Y109046D01*
X461319Y109126D01*
X461248Y109209D01*
X461179Y109295D01*
X461114Y109382D01*
X461052Y109472D01*
X460993Y109565D01*
X460938Y109659D01*
X460886Y109756D01*
X460838Y109854D01*
X460794Y109954D01*
X460753Y110055D01*
X460715Y110158D01*
X460682Y110262D01*
X460652Y110367D01*
X460627Y110474D01*
X460605Y110581D01*
X460587Y110689D01*
X460573Y110797D01*
X460563Y110906D01*
X460557Y111016D01*
X460555Y111125D01*
X461840Y111125D02*
X461842Y111208D01*
X461848Y111290D01*
X461858Y111372D01*
X461872Y111454D01*
X461890Y111534D01*
X461911Y111614D01*
X461937Y111693D01*
X461966Y111770D01*
X461999Y111846D01*
X462036Y111920D01*
X462076Y111992D01*
X462120Y112062D01*
X462167Y112130D01*
X462217Y112196D01*
X462270Y112259D01*
X462326Y112319D01*
X462385Y112377D01*
X462447Y112432D01*
X462512Y112484D01*
X462579Y112532D01*
X462648Y112578D01*
X462719Y112619D01*
X462792Y112658D01*
X462867Y112693D01*
X462944Y112724D01*
X463022Y112751D01*
X463101Y112775D01*
X463181Y112795D01*
X463262Y112811D01*
X463344Y112823D01*
X463426Y112831D01*
X463509Y112835D01*
X463591Y112835D01*
X463674Y112831D01*
X463756Y112823D01*
X463838Y112811D01*
X463919Y112795D01*
X463999Y112775D01*
X464078Y112751D01*
X464156Y112724D01*
X464233Y112693D01*
X464308Y112658D01*
X464381Y112619D01*
X464452Y112578D01*
X464521Y112532D01*
X464588Y112484D01*
X464653Y112432D01*
X464715Y112377D01*
X464774Y112319D01*
X464830Y112259D01*
X464883Y112196D01*
X464933Y112130D01*
X464980Y112062D01*
X465024Y111992D01*
X465064Y111920D01*
X465101Y111846D01*
X465134Y111770D01*
X465163Y111693D01*
X465189Y111614D01*
X465210Y111534D01*
X465228Y111454D01*
X465242Y111372D01*
X465252Y111290D01*
X465258Y111208D01*
X465260Y111125D01*
X465258Y111042D01*
X465252Y110960D01*
X465242Y110878D01*
X465228Y110796D01*
X465210Y110716D01*
X465189Y110636D01*
X465163Y110557D01*
X465134Y110480D01*
X465101Y110404D01*
X465064Y110330D01*
X465024Y110258D01*
X464980Y110188D01*
X464933Y110120D01*
X464883Y110054D01*
X464830Y109991D01*
X464774Y109931D01*
X464715Y109873D01*
X464653Y109818D01*
X464588Y109766D01*
X464521Y109718D01*
X464452Y109672D01*
X464381Y109631D01*
X464308Y109592D01*
X464233Y109557D01*
X464156Y109526D01*
X464078Y109499D01*
X463999Y109475D01*
X463919Y109455D01*
X463838Y109439D01*
X463756Y109427D01*
X463674Y109419D01*
X463591Y109415D01*
X463509Y109415D01*
X463426Y109419D01*
X463344Y109427D01*
X463262Y109439D01*
X463181Y109455D01*
X463101Y109475D01*
X463022Y109499D01*
X462944Y109526D01*
X462867Y109557D01*
X462792Y109592D01*
X462719Y109631D01*
X462648Y109672D01*
X462579Y109718D01*
X462512Y109766D01*
X462447Y109818D01*
X462385Y109873D01*
X462326Y109931D01*
X462270Y109991D01*
X462217Y110054D01*
X462167Y110120D01*
X462120Y110188D01*
X462076Y110258D01*
X462036Y110330D01*
X461999Y110404D01*
X461966Y110480D01*
X461937Y110557D01*
X461911Y110636D01*
X461890Y110716D01*
X461872Y110796D01*
X461858Y110878D01*
X461848Y110960D01*
X461842Y111042D01*
X461840Y111125D01*
D14*
X482600Y139700D02*
X533400Y139700D01*
X533400Y12700D02*
X482600Y12700D01*
X533400Y114300D02*
X533400Y139700D01*
X533400Y38100D02*
X533400Y12700D01*
X482600Y12700D02*
X482600Y38100D01*
X482600Y127000D02*
X482600Y139700D01*
D11*
X477396Y259814D02*
X473498Y263712D01*
X485192Y263712D01*
X485192Y259814D02*
X485192Y267610D01*
D13*
X460555Y263525D02*
X460557Y263634D01*
X460563Y263744D01*
X460573Y263853D01*
X460587Y263961D01*
X460605Y264069D01*
X460627Y264176D01*
X460652Y264283D01*
X460682Y264388D01*
X460715Y264492D01*
X460753Y264595D01*
X460794Y264696D01*
X460838Y264796D01*
X460886Y264894D01*
X460938Y264991D01*
X460993Y265085D01*
X461052Y265178D01*
X461114Y265268D01*
X461179Y265355D01*
X461248Y265441D01*
X461319Y265524D01*
X461394Y265604D01*
X461471Y265681D01*
X461551Y265756D01*
X461634Y265827D01*
X461720Y265896D01*
X461807Y265961D01*
X461897Y266023D01*
X461990Y266082D01*
X462084Y266137D01*
X462181Y266189D01*
X462279Y266237D01*
X462379Y266281D01*
X462480Y266322D01*
X462583Y266360D01*
X462687Y266393D01*
X462792Y266423D01*
X462899Y266448D01*
X463006Y266470D01*
X463114Y266488D01*
X463222Y266502D01*
X463331Y266512D01*
X463441Y266518D01*
X463550Y266520D01*
X463659Y266518D01*
X463769Y266512D01*
X463878Y266502D01*
X463986Y266488D01*
X464094Y266470D01*
X464201Y266448D01*
X464308Y266423D01*
X464413Y266393D01*
X464517Y266360D01*
X464620Y266322D01*
X464721Y266281D01*
X464821Y266237D01*
X464919Y266189D01*
X465016Y266137D01*
X465110Y266082D01*
X465203Y266023D01*
X465293Y265961D01*
X465380Y265896D01*
X465466Y265827D01*
X465549Y265756D01*
X465629Y265681D01*
X465706Y265604D01*
X465781Y265524D01*
X465852Y265441D01*
X465921Y265355D01*
X465986Y265268D01*
X466048Y265178D01*
X466107Y265085D01*
X466162Y264991D01*
X466214Y264894D01*
X466262Y264796D01*
X466306Y264696D01*
X466347Y264595D01*
X466385Y264492D01*
X466418Y264388D01*
X466448Y264283D01*
X466473Y264176D01*
X466495Y264069D01*
X466513Y263961D01*
X466527Y263853D01*
X466537Y263744D01*
X466543Y263634D01*
X466545Y263525D01*
X466543Y263416D01*
X466537Y263306D01*
X466527Y263197D01*
X466513Y263089D01*
X466495Y262981D01*
X466473Y262874D01*
X466448Y262767D01*
X466418Y262662D01*
X466385Y262558D01*
X466347Y262455D01*
X466306Y262354D01*
X466262Y262254D01*
X466214Y262156D01*
X466162Y262059D01*
X466107Y261965D01*
X466048Y261872D01*
X465986Y261782D01*
X465921Y261695D01*
X465852Y261609D01*
X465781Y261526D01*
X465706Y261446D01*
X465629Y261369D01*
X465549Y261294D01*
X465466Y261223D01*
X465380Y261154D01*
X465293Y261089D01*
X465203Y261027D01*
X465110Y260968D01*
X465016Y260913D01*
X464919Y260861D01*
X464821Y260813D01*
X464721Y260769D01*
X464620Y260728D01*
X464517Y260690D01*
X464413Y260657D01*
X464308Y260627D01*
X464201Y260602D01*
X464094Y260580D01*
X463986Y260562D01*
X463878Y260548D01*
X463769Y260538D01*
X463659Y260532D01*
X463550Y260530D01*
X463441Y260532D01*
X463331Y260538D01*
X463222Y260548D01*
X463114Y260562D01*
X463006Y260580D01*
X462899Y260602D01*
X462792Y260627D01*
X462687Y260657D01*
X462583Y260690D01*
X462480Y260728D01*
X462379Y260769D01*
X462279Y260813D01*
X462181Y260861D01*
X462084Y260913D01*
X461990Y260968D01*
X461897Y261027D01*
X461807Y261089D01*
X461720Y261154D01*
X461634Y261223D01*
X461551Y261294D01*
X461471Y261369D01*
X461394Y261446D01*
X461319Y261526D01*
X461248Y261609D01*
X461179Y261695D01*
X461114Y261782D01*
X461052Y261872D01*
X460993Y261965D01*
X460938Y262059D01*
X460886Y262156D01*
X460838Y262254D01*
X460794Y262354D01*
X460753Y262455D01*
X460715Y262558D01*
X460682Y262662D01*
X460652Y262767D01*
X460627Y262874D01*
X460605Y262981D01*
X460587Y263089D01*
X460573Y263197D01*
X460563Y263306D01*
X460557Y263416D01*
X460555Y263525D01*
X461840Y263525D02*
X461842Y263608D01*
X461848Y263690D01*
X461858Y263772D01*
X461872Y263854D01*
X461890Y263934D01*
X461911Y264014D01*
X461937Y264093D01*
X461966Y264170D01*
X461999Y264246D01*
X462036Y264320D01*
X462076Y264392D01*
X462120Y264462D01*
X462167Y264530D01*
X462217Y264596D01*
X462270Y264659D01*
X462326Y264719D01*
X462385Y264777D01*
X462447Y264832D01*
X462512Y264884D01*
X462579Y264932D01*
X462648Y264978D01*
X462719Y265019D01*
X462792Y265058D01*
X462867Y265093D01*
X462944Y265124D01*
X463022Y265151D01*
X463101Y265175D01*
X463181Y265195D01*
X463262Y265211D01*
X463344Y265223D01*
X463426Y265231D01*
X463509Y265235D01*
X463591Y265235D01*
X463674Y265231D01*
X463756Y265223D01*
X463838Y265211D01*
X463919Y265195D01*
X463999Y265175D01*
X464078Y265151D01*
X464156Y265124D01*
X464233Y265093D01*
X464308Y265058D01*
X464381Y265019D01*
X464452Y264978D01*
X464521Y264932D01*
X464588Y264884D01*
X464653Y264832D01*
X464715Y264777D01*
X464774Y264719D01*
X464830Y264659D01*
X464883Y264596D01*
X464933Y264530D01*
X464980Y264462D01*
X465024Y264392D01*
X465064Y264320D01*
X465101Y264246D01*
X465134Y264170D01*
X465163Y264093D01*
X465189Y264014D01*
X465210Y263934D01*
X465228Y263854D01*
X465242Y263772D01*
X465252Y263690D01*
X465258Y263608D01*
X465260Y263525D01*
X465258Y263442D01*
X465252Y263360D01*
X465242Y263278D01*
X465228Y263196D01*
X465210Y263116D01*
X465189Y263036D01*
X465163Y262957D01*
X465134Y262880D01*
X465101Y262804D01*
X465064Y262730D01*
X465024Y262658D01*
X464980Y262588D01*
X464933Y262520D01*
X464883Y262454D01*
X464830Y262391D01*
X464774Y262331D01*
X464715Y262273D01*
X464653Y262218D01*
X464588Y262166D01*
X464521Y262118D01*
X464452Y262072D01*
X464381Y262031D01*
X464308Y261992D01*
X464233Y261957D01*
X464156Y261926D01*
X464078Y261899D01*
X463999Y261875D01*
X463919Y261855D01*
X463838Y261839D01*
X463756Y261827D01*
X463674Y261819D01*
X463591Y261815D01*
X463509Y261815D01*
X463426Y261819D01*
X463344Y261827D01*
X463262Y261839D01*
X463181Y261855D01*
X463101Y261875D01*
X463022Y261899D01*
X462944Y261926D01*
X462867Y261957D01*
X462792Y261992D01*
X462719Y262031D01*
X462648Y262072D01*
X462579Y262118D01*
X462512Y262166D01*
X462447Y262218D01*
X462385Y262273D01*
X462326Y262331D01*
X462270Y262391D01*
X462217Y262454D01*
X462167Y262520D01*
X462120Y262588D01*
X462076Y262658D01*
X462036Y262730D01*
X461999Y262804D01*
X461966Y262880D01*
X461937Y262957D01*
X461911Y263036D01*
X461890Y263116D01*
X461872Y263196D01*
X461858Y263278D01*
X461848Y263360D01*
X461842Y263442D01*
X461840Y263525D01*
D14*
X482600Y292100D02*
X533400Y292100D01*
X533400Y165100D02*
X482600Y165100D01*
X533400Y266700D02*
X533400Y292100D01*
X533400Y190500D02*
X533400Y165100D01*
X482600Y165100D02*
X482600Y190500D01*
X482600Y279400D02*
X482600Y292100D01*
D11*
X477396Y412214D02*
X473498Y416112D01*
X485192Y416112D01*
X485192Y412214D02*
X485192Y420010D01*
D13*
X460555Y415925D02*
X460557Y416034D01*
X460563Y416144D01*
X460573Y416253D01*
X460587Y416361D01*
X460605Y416469D01*
X460627Y416576D01*
X460652Y416683D01*
X460682Y416788D01*
X460715Y416892D01*
X460753Y416995D01*
X460794Y417096D01*
X460838Y417196D01*
X460886Y417294D01*
X460938Y417391D01*
X460993Y417485D01*
X461052Y417578D01*
X461114Y417668D01*
X461179Y417755D01*
X461248Y417841D01*
X461319Y417924D01*
X461394Y418004D01*
X461471Y418081D01*
X461551Y418156D01*
X461634Y418227D01*
X461720Y418296D01*
X461807Y418361D01*
X461897Y418423D01*
X461990Y418482D01*
X462084Y418537D01*
X462181Y418589D01*
X462279Y418637D01*
X462379Y418681D01*
X462480Y418722D01*
X462583Y418760D01*
X462687Y418793D01*
X462792Y418823D01*
X462899Y418848D01*
X463006Y418870D01*
X463114Y418888D01*
X463222Y418902D01*
X463331Y418912D01*
X463441Y418918D01*
X463550Y418920D01*
X463659Y418918D01*
X463769Y418912D01*
X463878Y418902D01*
X463986Y418888D01*
X464094Y418870D01*
X464201Y418848D01*
X464308Y418823D01*
X464413Y418793D01*
X464517Y418760D01*
X464620Y418722D01*
X464721Y418681D01*
X464821Y418637D01*
X464919Y418589D01*
X465016Y418537D01*
X465110Y418482D01*
X465203Y418423D01*
X465293Y418361D01*
X465380Y418296D01*
X465466Y418227D01*
X465549Y418156D01*
X465629Y418081D01*
X465706Y418004D01*
X465781Y417924D01*
X465852Y417841D01*
X465921Y417755D01*
X465986Y417668D01*
X466048Y417578D01*
X466107Y417485D01*
X466162Y417391D01*
X466214Y417294D01*
X466262Y417196D01*
X466306Y417096D01*
X466347Y416995D01*
X466385Y416892D01*
X466418Y416788D01*
X466448Y416683D01*
X466473Y416576D01*
X466495Y416469D01*
X466513Y416361D01*
X466527Y416253D01*
X466537Y416144D01*
X466543Y416034D01*
X466545Y415925D01*
X466543Y415816D01*
X466537Y415706D01*
X466527Y415597D01*
X466513Y415489D01*
X466495Y415381D01*
X466473Y415274D01*
X466448Y415167D01*
X466418Y415062D01*
X466385Y414958D01*
X466347Y414855D01*
X466306Y414754D01*
X466262Y414654D01*
X466214Y414556D01*
X466162Y414459D01*
X466107Y414365D01*
X466048Y414272D01*
X465986Y414182D01*
X465921Y414095D01*
X465852Y414009D01*
X465781Y413926D01*
X465706Y413846D01*
X465629Y413769D01*
X465549Y413694D01*
X465466Y413623D01*
X465380Y413554D01*
X465293Y413489D01*
X465203Y413427D01*
X465110Y413368D01*
X465016Y413313D01*
X464919Y413261D01*
X464821Y413213D01*
X464721Y413169D01*
X464620Y413128D01*
X464517Y413090D01*
X464413Y413057D01*
X464308Y413027D01*
X464201Y413002D01*
X464094Y412980D01*
X463986Y412962D01*
X463878Y412948D01*
X463769Y412938D01*
X463659Y412932D01*
X463550Y412930D01*
X463441Y412932D01*
X463331Y412938D01*
X463222Y412948D01*
X463114Y412962D01*
X463006Y412980D01*
X462899Y413002D01*
X462792Y413027D01*
X462687Y413057D01*
X462583Y413090D01*
X462480Y413128D01*
X462379Y413169D01*
X462279Y413213D01*
X462181Y413261D01*
X462084Y413313D01*
X461990Y413368D01*
X461897Y413427D01*
X461807Y413489D01*
X461720Y413554D01*
X461634Y413623D01*
X461551Y413694D01*
X461471Y413769D01*
X461394Y413846D01*
X461319Y413926D01*
X461248Y414009D01*
X461179Y414095D01*
X461114Y414182D01*
X461052Y414272D01*
X460993Y414365D01*
X460938Y414459D01*
X460886Y414556D01*
X460838Y414654D01*
X460794Y414754D01*
X460753Y414855D01*
X460715Y414958D01*
X460682Y415062D01*
X460652Y415167D01*
X460627Y415274D01*
X460605Y415381D01*
X460587Y415489D01*
X460573Y415597D01*
X460563Y415706D01*
X460557Y415816D01*
X460555Y415925D01*
X461840Y415925D02*
X461842Y416008D01*
X461848Y416090D01*
X461858Y416172D01*
X461872Y416254D01*
X461890Y416334D01*
X461911Y416414D01*
X461937Y416493D01*
X461966Y416570D01*
X461999Y416646D01*
X462036Y416720D01*
X462076Y416792D01*
X462120Y416862D01*
X462167Y416930D01*
X462217Y416996D01*
X462270Y417059D01*
X462326Y417119D01*
X462385Y417177D01*
X462447Y417232D01*
X462512Y417284D01*
X462579Y417332D01*
X462648Y417378D01*
X462719Y417419D01*
X462792Y417458D01*
X462867Y417493D01*
X462944Y417524D01*
X463022Y417551D01*
X463101Y417575D01*
X463181Y417595D01*
X463262Y417611D01*
X463344Y417623D01*
X463426Y417631D01*
X463509Y417635D01*
X463591Y417635D01*
X463674Y417631D01*
X463756Y417623D01*
X463838Y417611D01*
X463919Y417595D01*
X463999Y417575D01*
X464078Y417551D01*
X464156Y417524D01*
X464233Y417493D01*
X464308Y417458D01*
X464381Y417419D01*
X464452Y417378D01*
X464521Y417332D01*
X464588Y417284D01*
X464653Y417232D01*
X464715Y417177D01*
X464774Y417119D01*
X464830Y417059D01*
X464883Y416996D01*
X464933Y416930D01*
X464980Y416862D01*
X465024Y416792D01*
X465064Y416720D01*
X465101Y416646D01*
X465134Y416570D01*
X465163Y416493D01*
X465189Y416414D01*
X465210Y416334D01*
X465228Y416254D01*
X465242Y416172D01*
X465252Y416090D01*
X465258Y416008D01*
X465260Y415925D01*
X465258Y415842D01*
X465252Y415760D01*
X465242Y415678D01*
X465228Y415596D01*
X465210Y415516D01*
X465189Y415436D01*
X465163Y415357D01*
X465134Y415280D01*
X465101Y415204D01*
X465064Y415130D01*
X465024Y415058D01*
X464980Y414988D01*
X464933Y414920D01*
X464883Y414854D01*
X464830Y414791D01*
X464774Y414731D01*
X464715Y414673D01*
X464653Y414618D01*
X464588Y414566D01*
X464521Y414518D01*
X464452Y414472D01*
X464381Y414431D01*
X464308Y414392D01*
X464233Y414357D01*
X464156Y414326D01*
X464078Y414299D01*
X463999Y414275D01*
X463919Y414255D01*
X463838Y414239D01*
X463756Y414227D01*
X463674Y414219D01*
X463591Y414215D01*
X463509Y414215D01*
X463426Y414219D01*
X463344Y414227D01*
X463262Y414239D01*
X463181Y414255D01*
X463101Y414275D01*
X463022Y414299D01*
X462944Y414326D01*
X462867Y414357D01*
X462792Y414392D01*
X462719Y414431D01*
X462648Y414472D01*
X462579Y414518D01*
X462512Y414566D01*
X462447Y414618D01*
X462385Y414673D01*
X462326Y414731D01*
X462270Y414791D01*
X462217Y414854D01*
X462167Y414920D01*
X462120Y414988D01*
X462076Y415058D01*
X462036Y415130D01*
X461999Y415204D01*
X461966Y415280D01*
X461937Y415357D01*
X461911Y415436D01*
X461890Y415516D01*
X461872Y415596D01*
X461858Y415678D01*
X461848Y415760D01*
X461842Y415842D01*
X461840Y415925D01*
D14*
X482600Y444500D02*
X533400Y444500D01*
X533400Y317500D02*
X482600Y317500D01*
X533400Y419100D02*
X533400Y444500D01*
X533400Y342900D02*
X533400Y317500D01*
X482600Y317500D02*
X482600Y342900D01*
X482600Y431800D02*
X482600Y444500D01*
D10*
X250772Y14571D02*
X254501Y10842D01*
X250772Y14571D02*
X261958Y14571D01*
X261958Y18299D02*
X261958Y10842D01*
D13*
X246480Y52070D02*
X327760Y52070D01*
X327760Y21590D01*
X246480Y21590D01*
X246480Y52070D01*
D10*
X443070Y499950D02*
X443070Y503870D01*
X420530Y503870D01*
X420530Y493600D01*
X443070Y471600D02*
X443070Y461330D01*
X420530Y461330D01*
X420530Y471600D01*
X444500Y492760D02*
X449580Y492760D01*
X447040Y495300D02*
X447040Y490220D01*
X443070Y557100D02*
X443070Y567370D01*
X420530Y567370D01*
X420530Y557100D01*
X443070Y535100D02*
X443070Y524830D01*
X420530Y524830D01*
X420530Y535100D01*
D12*
X420325Y549660D02*
X421808Y551143D01*
X424774Y551143D01*
X426257Y549660D01*
X426257Y548177D01*
X424774Y546694D01*
X423291Y546694D01*
X424774Y546694D02*
X426257Y545211D01*
X426257Y543728D01*
X424774Y542245D01*
X421808Y542245D01*
X420325Y543728D01*
X429680Y549660D02*
X431163Y551143D01*
X434129Y551143D01*
X435612Y549660D01*
X435612Y548177D01*
X434129Y546694D01*
X432646Y546694D01*
X434129Y546694D02*
X435612Y545211D01*
X435612Y543728D01*
X434129Y542245D01*
X431163Y542245D01*
X429680Y543728D01*
X439035Y543728D02*
X439035Y549660D01*
X440518Y551143D01*
X443484Y551143D01*
X444967Y549660D01*
X444967Y543728D01*
X443484Y542245D01*
X440518Y542245D01*
X439035Y543728D01*
X444967Y549660D01*
X215900Y596900D02*
X215900Y127000D01*
X355600Y127000D01*
X355600Y596900D01*
X317500Y609600D02*
X254000Y609600D01*
X215900Y597900D02*
X355600Y597900D01*
X254000Y596900D02*
X254000Y609600D01*
X317500Y609600D02*
X317500Y596900D01*
M02*
