G04 EAGLE Gerber RS-274X export*
G75*
%MOMM*%
%FSLAX34Y34*%
%LPD*%
%INSolderpaste Top*%
%IPPOS*%
%AMOC8*
5,1,8,0,0,1.08239X$1,22.5*%
G01*
%ADD10R,1.200000X0.900000*%
%ADD11R,2.400000X0.760000*%
%ADD12R,1.700000X0.900000*%
%ADD13R,3.200000X1.600000*%
%ADD14R,1.600000X3.200000*%
%ADD15R,6.300000X6.100000*%
%ADD16R,1.500000X2.800000*%


D10*
X50800Y81390D03*
X50800Y63390D03*
X177800Y47100D03*
X177800Y29100D03*
D11*
X482600Y558800D03*
X533400Y558800D03*
X482600Y546100D03*
X533400Y546100D03*
X482600Y533400D03*
X533400Y533400D03*
X482600Y520700D03*
X533400Y520700D03*
X482600Y508000D03*
X533400Y508000D03*
X482600Y101600D03*
X533400Y101600D03*
X482600Y88900D03*
X533400Y88900D03*
X482600Y76200D03*
X533400Y76200D03*
X482600Y63500D03*
X533400Y63500D03*
X482600Y50800D03*
X533400Y50800D03*
X482600Y254000D03*
X533400Y254000D03*
X482600Y241300D03*
X533400Y241300D03*
X482600Y228600D03*
X533400Y228600D03*
X482600Y215900D03*
X533400Y215900D03*
X482600Y203200D03*
X533400Y203200D03*
X482600Y406400D03*
X533400Y406400D03*
X482600Y393700D03*
X533400Y393700D03*
X482600Y381000D03*
X533400Y381000D03*
X482600Y368300D03*
X533400Y368300D03*
X482600Y355600D03*
X533400Y355600D03*
D12*
X431800Y497100D03*
X431800Y468100D03*
X431800Y560600D03*
X431800Y531600D03*
D13*
X190500Y584200D03*
X190500Y558800D03*
X190500Y533400D03*
X190500Y508000D03*
X190500Y482600D03*
X190500Y457200D03*
X190500Y431800D03*
X190500Y406400D03*
X190500Y381000D03*
X190500Y355600D03*
X190500Y330200D03*
X190500Y304800D03*
X190500Y279400D03*
X190500Y254000D03*
X190500Y228600D03*
X190500Y203200D03*
X190500Y177800D03*
X190500Y152400D03*
X190500Y127000D03*
X190500Y101600D03*
X384300Y101600D03*
X384300Y127000D03*
X384300Y152400D03*
X384300Y177800D03*
X384300Y203200D03*
X384300Y228600D03*
X384300Y254000D03*
X384300Y279400D03*
X384300Y304800D03*
X384300Y330200D03*
X384300Y355600D03*
X384300Y381000D03*
X384300Y406400D03*
X384300Y431800D03*
X384300Y457200D03*
X384300Y482600D03*
X384300Y508000D03*
X384300Y533400D03*
X384300Y558800D03*
X384300Y584200D03*
D14*
X262000Y95900D03*
X287400Y95900D03*
X312800Y95900D03*
D15*
X114300Y113900D03*
D16*
X91500Y50900D03*
X137100Y50900D03*
M02*
