M48
;GenerationSoftware,Autodesk,EAGLE,9.6.2*%
;CreationDate,2023-05-29T23:54:29Z*%
FMAT,2
ICI,OFF
METRIC,TZ,000.000
T3C0.350
T2C1.000
T1C3.175
%
G90
M71
T1
X2540Y2540
X58420Y2540
X58420Y58420
X2540Y58420
T2
X7620Y31870
X7620Y21590
X7620Y19090
X7620Y48340
X7620Y50840
X7620Y53340
X7620Y29370
X7620Y34370
X7620Y36870
X7620Y39370
X26162Y3683
X28702Y3683
X31242Y3683
T3
X45720Y20320
X44450Y35052
X30607Y35052
X45085Y36703
X33020Y36830
X55880Y36830
X44450Y38100
X55753Y39370
X41910Y38100
X43180Y30480
X53340Y26670
X55880Y27940
X41910Y29210
X56515Y31750
X22860Y31750
X52705Y33147
X22860Y33020
X25400Y38100
X55880Y49530
X55880Y53340
X24130Y41910
X15240Y40640
X35560Y15240
X34290Y25400
X53340Y17780
X11430Y2540
X34290Y55880
X57150Y35560
X29210Y39370
X46482Y49403
X26670Y40640
X56007Y29210
X45720Y51562
X27940Y41910
X45720Y53340
X45339Y12700
X21590Y12700
X35560Y17780
M30